/* XPM */
static char *result[] = {
/* columns rows colors chars-per-pixel */
"50 50 83 1 ",
"  c #020101",
". c #0D0D00",
"X c #0B0B0B",
"o c #141414",
"O c #1A1A1A",
"+ c #5D5F5E",
"@ c #5E605F",
"# c #646665",
"$ c #676968",
"% c #6A6C6B",
"& c #727473",
"* c #777978",
"= c #797B7A",
"- c #7E807F",
"; c #BB8B32",
": c #C39133",
"> c #C89534",
", c #CE9936",
"< c #D8A038",
"1 c #F3F300",
"2 c #F8F702",
"3 c #F8F801",
"4 c #F7D622",
"5 c #F8D820",
"6 c #F9DB2E",
"7 c #838584",
"8 c #848588",
"9 c #8B8D8C",
"0 c #8E908F",
"q c #929393",
"w c #969897",
"e c #96979B",
"r c #979998",
"t c #9B9D9C",
"y c #9EA09F",
"u c #9D9EA1",
"i c #9FA1A0",
"p c #A2A4A3",
"a c #A6A8A7",
"s c #A8AAA7",
"d c #A4A5A9",
"f c #A7A9A9",
"g c #AAACAB",
"h c #AFB1AE",
"j c #B0B2AF",
"k c #ADAEB1",
"l c #AFB1B0",
"z c #B3B5B3",
"x c #B6B8B6",
"c c #B8BAB7",
"v c #B7B9B8",
"b c #BBBDBA",
"n c #BFC1BE",
"m c #C0C2BF",
"M c #BFC1C0",
"N c #C3C5C3",
"B c #C7C9C6",
"V c #C8CAC7",
"C c #C7C9C8",
"Z c #CBCDCB",
"A c #CFD1CE",
"S c #D0D2CF",
"D c #CFD1D0",
"F c #D3D5D3",
"G c #D6D8D6",
"H c #D8DAD7",
"J c #D7D9D8",
"K c #DBDDDB",
"L c #DEE0DD",
"P c #E0E2DF",
"I c #DFE1E0",
"U c #E3E5E2",
"Y c #E6E8E6",
"T c #E8EAE7",
"R c #E7E9E8",
"E c #EBEDEA",
"W c #EFF1ED",
"Q c #F0F2EF",
"! c #EFF1F0",
"~ c #F3F5F2",
"^ c #F6F8F5",
"/ c #FCFDF4",
"( c #FDFEFC",
/* pixels */
"EETYYEEQ~~^^WEWWWEGFmNFLKKKSEQ~ETWEE^ELYTUHGPYWEUL",
"E~~~EEWWW~~^EWE~QUGmFNZKPFYEQEETTWTYGLYLANVGUEEEPL",
"YWW^EEEEEEETUEUWELFxJFYEQEEKQQTTYEWUL~^LAGKHYEEEEY",
"TETEPYETEEYLEETWEYLNxCUJSK~QQQETYYEYYEYLLWWP^WEEYY",
"YEWEFPEEW~WYYUYTTTKNNVX    XQQ~YPYYTEYPYYLUE^EILUY",
"EEEEEWWETYEEWWEWTWTzOoKUUUUKOOTTLLYPSLFGLTLTTWEWEE",
"WWWW~~~~WWW~W~WWEWTx  ~((((~  WEQELSUHYPYWY~T~~YTW",
"Q~~Q~~^~WWWQ~QEWEWOX((6555555< oTTPLHHEUYYWQ/EEEEE",
"QQQQUYYYLLUUQ~EWT!o (522((224< oUWLAZGEYLUWUWYUWQY",
"EWWE~~~~WWW~WQEETEO (522((2224,;X~YEKL~EGUUUETWWWT",
"EEEETEEEYYYTEEYEY E(42//25..25<> YUWYEWELLGW~WWLW^",
"WWWWTEWEYYYETTUYU E(53//25 .24<> NGLKYUTWLHWE^HhL~",
"~W~WTEEETYTEYYPYI T(53/(35 .25<> LTGSZW~WWEWDKUU^W",
"WWWW~FF~YUWEYYYTT E(53//35 .25<> UY~AGYELLWUETILUY",
"WWEW~UKWWQWEYEEEE E(52//35..35<> CSAhWEATWGHYTWULE",
"WWQW~~~~EEPETWWEE E(52/(35 .35<> SHFhGHHWTKPWYTWWW",
"~~^~W/~QW~R!WWE!~ E(53/(25..25<> U^^LDU^~Q/!T^!LFG",
"^^~~Q/~~WEYE~WW~~ E(52//25 .25<> F^W!/WKIWUGIYUUE^",
"WWWWW~E/EY~/EWWE! E(52/(55..25<> E^TAHMnUEI~!TUKVV",
"WWWWEYHPKLKUUYRRR E(52/(55 .25<> !IL(UDL~YL~JKKKLE",
"WWWWQEPPGULWRRYEEYo 4221  125<XoIKII(!YIW~RKE!!REE",
"Q~EW~~TPWWWQ(RE!KTo 5221  125<XoDDIRRKJIEIIRRYIUEW",
"IJKUPEWQEYQ^!REUDRo 55555554<<XoIJIRLIR!YIU!RYR!WT",
"lxvvxccmVAASDZGGCFD=  ,<<<<,  PGJRE!YIIIUERU!^RJGT",
"&=***9iaggigprtgitr%oO;::::;OOClnDFFFJDADJFDMNxtyn",
"#%@&#@79qp099=&-*&-$xKX    X~Kvdagfiiaggdiiiiiiday",
"=q*8q8itudqqlgipiililNblhxNZxlfggiaaaieiirwwweiiyw",
"*q9fddkdue88ggdllglgydggflxftpfxvzxxMvzzlfhlilldya",
"*t09dudirtfdayrlxtplpgMCvbNlblffhxhgcxxcxgggfllxll",
"qsyqpppppyttwyyyaashbUUZGULFUvxaqyahghxcxxzlkkflxl",
"hcmxgggzjzjhhxnNNZFHLYULULGLYE(Uchhyjhssashzlfdklu",
"PLYWKLIYTTWETQ~~^~^(WEY~~EW~^YW^~WHAnncxnnnnMvMxMD",
"YVSQEEQ~^^^^~^~E~TUT~YT~~~~WE^W^~R^~W~~^^~WY^Y~~~E",
"WVS^EEWWEETT~WQ~W~~WELR~~EET^(^EE!~!^^^~~WW~WQ/^W^",
"KZHYHHHHHFFSKUYYYYE~UJIERUUIEELE!Y!EETYYUUYE~QLYUY",
"W/((((((((((!(/~/^~(/((((//~/~^^^^~WWW!~W~W~QELW~W",
"LEEWPYYTWQWW~~~WWEETYEEEEE!~WWQ^/(^W^^~^/(/^////WW",
"CNCVZZZAZZZZCAZCSFSGGKHPLIYLLUYYUILKYYUUIURYTPUPUY",
"HGGLPPYPUUYUGKFSFHKPPYPKLIU~QEPHHKHFKKKKIKKKFFGGKI",
"WPLYLLKLKLKKKLKKLLHLTYLHJKYIFKLKHKLLFGHKKJFGJGGLII",
"PKKUPPPPPPLPPULHLKLPQGKKKPGGHKKGGLHAHKLLLKLHUIIIIY",
"KHKPYYYYYYYYYTULYPPYGPETTYKYLPPLLUPLUULUIIUUULJJJK",
"YPPYKKKKKKKKLPPPPPPP(/Q^QPKYYEETULLUYULLLUUUIKFGGL",
"PPYTLKLLKLLLLPHGHPPYKHE~YPYEQYPPUPUYPUUPUIUUIKJJLI",
"PHGLHHHHHHHHLPPLYPYTSmjmFHE^HFHYTLLTLLUYUULLIKFFGH",
"KGFGKPHT(WPYPPYTEYYYTKBVSLPVPYYPPYYLLTULLLUKKDDCAL",
"PHKPYHUQABTPPPLKKPPPPGKSSYPPPKKKPLLLLLULLULUIGDGLP",
"KGKPYKYQmxYKLKKLPPYYPPPLGPPPYKHLULLLULLUUYITYELFHL",
"KHHKPTPTPSPPPPYEEETWEQTETYEYTPPYTYUYYYUTTUTTWWUPUY",
"WTTEEEPYWEYYWQQEETTPTTYEQQEETEWETTTWWWEWWTWTELHSGU"
};
