/* XPM */
static char *result[] = {
/* columns rows colors chars-per-pixel */
"50 50 136 2 ",
"   c #5D5F5E",
".  c #5E605F",
"X  c #646665",
"o  c #6C6E6D",
"O  c #727473",
"+  c #787A79",
"@  c #7E807F",
"#  c #FF9100",
"$  c #FF9B00",
"%  c #FEA200",
"&  c #FEAF00",
"*  c #FFA908",
"=  c #FEB300",
"-  c #FDBF00",
";  c #FEBF0A",
":  c #FDC103",
">  c #FEC20A",
",  c #FEC80F",
"<  c #FBC513",
"1  c #FECB14",
"2  c #FED11E",
"3  c #F2C42A",
"4  c #F8CB2E",
"5  c #FFD424",
"6  c #FFD728",
"7  c #FFDA2D",
"8  c #EFC83E",
"9  c #F9CC31",
"0  c #F8D636",
"q  c #FDDA33",
"w  c #FBD93A",
"e  c #B7AB70",
"r  c #BFB578",
"t  c #D7C15B",
"y  c #DDC45D",
"u  c #E9CC43",
"i  c #F5CC41",
"p  c #F8CE41",
"a  c #FDDC45",
"s  c #F1D44B",
"d  c #FCD348",
"f  c #FFDF49",
"g  c #F1D655",
"h  c #F7DA53",
"j  c #FADE53",
"k  c #F6DB58",
"l  c #F9DE5B",
"z  c #EED46E",
"x  c #F3D76F",
"c  c #EED971",
"v  c #EAD97F",
"b  c #F3DB74",
"n  c #F4DF79",
"m  c #F6E27E",
"M  c #F9E47D",
"N  c #838584",
"B  c #858688",
"V  c #8B8D8C",
"C  c #8E908F",
"Z  c #929493",
"A  c #969897",
"S  c #96979B",
"D  c #979998",
"F  c #9A9C9C",
"G  c #9EA09F",
"H  c #B0AD9B",
"J  c #9E9FA2",
"K  c #9FA1A0",
"L  c #A2A4A3",
"P  c #A8AAA7",
"I  c #A5A6A9",
"U  c #A7A9A9",
"Y  c #AAACAB",
"T  c #AFB1AE",
"R  c #B1B3AE",
"E  c #B8B8AD",
"W  c #ADAEB1",
"Q  c #AFB1B0",
"!  c #B3B5B4",
"~  c #B7B9B6",
"^  c #B8BAB7",
"/  c #B7B9B8",
"(  c #BBBDBB",
")  c #BEC0BE",
"_  c #DBCD95",
"`  c #F0DF88",
"'  c #F5E48D",
"]  c #C0C2BF",
"[  c #CFCEBE",
"{  c #DDD6B4",
"}  c #E0D7AC",
"|  c #E3D8AB",
" . c #E1DABA",
".. c #ECE1A4",
"X. c #F4E9AD",
"o. c #F9EBB4",
"O. c #BFC1C0",
"+. c #C3C5C3",
"@. c #C7C9C6",
"#. c #C8CAC7",
"$. c #CBCDCA",
"%. c #CFD1CE",
"&. c #D1D3CD",
"*. c #DDDCCE",
"=. c #CFD1D0",
"-. c #D3D5D3",
";. c #D6D8D6",
":. c #D8DAD7",
">. c #D7D9D8",
",. c #DBDDDB",
"<. c #E1DEC6",
"1. c #DEE0DD",
"2. c #E8E4C5",
"3. c #F7EEC2",
"4. c #F4EDCE",
"5. c #E4E2D2",
"6. c #E9E8D5",
"7. c #E0E2DF",
"8. c #EBE9DA",
"9. c #F0EFDF",
"0. c #F5F1D2",
"q. c #F5F3DF",
"w. c #DFE1E0",
"e. c #E3E5E2",
"r. c #E6E8E6",
"t. c #E8EAE7",
"y. c #E7E9E8",
"u. c #EBEDEA",
"i. c #EFF1EE",
"p. c #F7F6E4",
"a. c #F0F2EF",
"s. c #EFF1F0",
"d. c #F3F5F2",
"f. c #F6F9F5",
"g. c #F9FBF6",
"h. c #FCFEFB",
/* pixels */
"u.u.r.r.r.u.u.d.d.d.d.g.u.u.s.i.i.u.;.&.) ] ;.1.,.:.1.&.u.u.d.u.u.u.u.u.f.t.e.r.u.e.,.-.7.r.u.u.e.1.",
"u.d.d.d.u.u.u.i.d.a.d.f.u.u.u.d.d.e.;.+.;.+.$.,.1.;.e.u.i.i.i.t.t.i.u.r.-.1.e.1.$.+.#.;.e.u.i.u.e.1.",
"r.i.i.f.u.u.u.u.u.u.u.r.e.u.e.i.u.1.-.~ >.-.e.u.a.i.u.,.a.a.t.r.u.u.u.e.1.d.f.1.&.-.,.:.r.u.u.u.t.r.",
"t.u.t.u.7.r.u.u.u.u.r.e.u.i.u.u.u.r.,.+.~ $.e.>.%.,.d.i.i.d.u.t.r.r.u.e.r.u.u.,.e.i.u.e.d.d.u.t.r.r.",
"e.u.i.u.-.e.u.u.u.d.d.e.e.e.e.t.u.r.,.+.+.#.w.e.,.>.y.r.i.a.d.r.1.r.e.u.i.e.7.r.r.1.e.u.d.u.e.1.e.r.",
"u.u.u.u.u.u.i.u.u.r.u.u.d.d.u.i.u.u.r.~ $.~ / ;.e.e.i.y.u.d.u.r.e.,.u.1.&.1.-.;.1.r.1.r.u.i.u.u.u.u.",
"a.a.i.i.d.d.d.d.i.i.i.a.a.d.u.a.u.u.u.~ U Q ( >.e.w.y.s.d.h.i.u.d.u.1.&.e.:.t.7.e.u.u.d.r.d.d.r.t.i.",
"d.d.d.a.d.d.f.d.i.i.i.d.a.a.u.i.u.i.u.~ L +.>.s.f.w.-.>.f.i.d.d.r.r.e.,.:.,.t.e.r.u.i.d.h.u.u.u.u.u.",
"i.d.a.d.e.e.e.e.e.7.7.e.a.d.u.a.u.i.y.~ U O.@.=.,.>.,.y.i.:.r.e.7.a.7.&.$.-.u.r.7.e.u.e.u.e.e.u.d.r.",
"u.u.u.u.d.d.f.d.a.i.i.d.i.a.u.u.r.i.r.E e y s w q - : < 9 x <.-.e.d.r.u.,.1.d.i.;.r.e.e.u.u.d.a.i.r.",
"u.u.u.u.u.u.u.u.t.t.r.u.u.u.r.u.e.8.n q 7 7 7 7 q - - - - - : 9 4.t.e.i.r.u.u.u.,.,.;.u.d.a.a.,.i.f.",
"i.i.i.a.u.u.i.u.u.e.r.t.t.t.e.r.' q 7 7 7 7 7 7 7 - - - - - - ; : 8 &.1.,.t.e.t.a.,.:.d.u.g.,.Y 1.d.",
"d.i.d.i.u.u.u.u.r.e.t.t.t.t.5.l 7 7 7 7 7 7 7 6 5 = = - : - - - - - < { -.$.u.d.d.u.u.d.-.>.e.e.f.u.",
"i.i.i.d.i.-.-.d.u.e.a.u.e.2.a 7 7 7 7 7 2 , - - : # # # $ = - - - - - > _ -.u.u.,.e.u.e.u.u.e.,.r.r.",
"u.u.u.u.d.e.,.u.u.d.u.u.8.a 7 7 7 7 2 : - : - - : # # # # # $ & - - - - > 4.u.&.t.u.:.>.e.u.u.e.1.u.",
"d.i.d.i.d.d.d.d.u.u.e.t.l 7 7 7 7 1 - : - - - - : # # # # # # # % - - - - < *.>.u.u.,.e.u.u.u.u.i.u.",
"d.f.d.d.i.f.d.i.s.d.u.' 7 7 7 7 , - - - - - - - : # # # # # # # # $ - - - - p g.d.d.g.d.u.d.d.,.&.;.",
"f.d.d.d.d.h.d.d.u.u.6.q 7 7 7 1 - - - - - - - - - # # # # # # # # # % - - - : } 7.u.e.;.w.y.e.e.i.d.",
"i.i.i.i.i.d.i.f.u.y.M 7 7 7 5 - - - - - - - - - - # # # # # # # # # # & - - - 3 e.u.1.d.d.y.e.,.$.#.",
"i.i.i.i.u.t.:.1.,.,.q 7 7 7 : - - - - - - - - : - # # # # # # # # # # $ - - - - q.r.,.d.>.>.,.,.1.r.",
"i.i.i.i.i.i.e.1.:...5 7 7 2 - - - - - - > 2 2 2 2 ; ; ; ; * # # # # # # & - - - b d.y.,.y.s.u.y.i.i.",
"s.d.y.s.p.f.r.7.a.M 7 7 7 , - - - - - - 2 7 7 7 7 - - - - ; # # # # # # $ - - - 9 e.e.u.y.r.e.e.t.i.",
",.,.w.e.7.u.i.a.i.j 7 7 7 - - - - - : - 2 7 7 7 7 - - - - ; # # # # # # $ - - - < e.e.u.y.y.y.s.i.r.",
"Q ! / / ~ ^ ~ ) #.w 7 7 6 - - - - - - - 5 7 7 7 7 - - - - ; # # # # # # # = - - : u.y.e.s.f.y.>.-.t.",
"O @ + + + V G L Y q 7 7 5 : - - - - - - 5 7 7 7 7 - - - - ; # # # # # # # = - - > ;.-.=.O.@.! G K ) ",
"X o . O X . N V Z q 7 7 5 : - - - - - - 2 7 7 7 7 - : - - > # # # # # # # = - - : K K K K K K L L K ",
"+ Z + B Z B K J K 0 7 7 6 - - - - - : - 2 7 7 7 7 - - - - ; # # # # # # # - - - : A A A Z F K K G A ",
"O Z V U I I W K F u 7 7 7 : - - - - - - 2 7 7 7 7 - - - - ; # # # # # # # - - - < Y T Q K Q Q I K U ",
"+ F C C I K K K A t 7 7 7 , - - - - - - 2 7 7 7 7 - - - - ; # # # # # # % - - - 3 Y Y Y Y Y Q ! ! Q ",
"Z P G Z K I I I L r 7 7 7 2 - - - - - - > 2 2 2 2 ; ; ; > * # # # # # # & - - : t ! R ! W W W W ! Q ",
"T ~ ) ~ P Y Q Q ! R q 7 7 7 > - - - - : - - - - - # # # # # # # # # # $ - - : : H T T ! Q U I W Q J ",
"1.1.y.i.,.1.w.r.y.y.m 7 7 7 2 - - - - - - - - - - # # # # # # # # # # & - - : 3 ^ ) ) ^ ) / O./ O.=.",
"r.#.&.i.u.u.a.d.f.f.p.q 7 7 7 1 : : - - - : - - - # # # # # # # # # % - - - : 3.f.d.u.u.f.e.d.d.d.i.",
"i.$.&.f.u.u.i.i.u.u.u.' 7 7 7 7 > : - - - - - - - # # # # # # # # $ - - - : d d.d.i.i.d.a.a.g.g.a.d.",
",.$.:.e.:.>.:.,.-.-.;.&.k 7 7 7 7 1 : : - - - - - # # # # # # # % - - - - < 8.r.e.e.e.u.f.p.1.r.e.r.",
"i.h.h.h.h.h.h.h.h.h.h.h.9.f 7 7 7 7 2 : - - - - - # # # # # $ = - - - - > 4.d.d.a.a.d.d.i.t.1.a.a.i.",
"1.i.u.i.7.e.r.u.a.a.a.a.d.0.f 7 7 7 7 7 2 , : - - # $ # $ = - - - - - > o.d.d.f.g.h.h.f.f.g.g.g.i.i.",
"+.+.@.#.$.%.$.$.$.$.$.$.#.$.#.g 7 7 7 7 7 7 7 7 6 = = - - - - - - - <  .t.t.e.e.e.e.r.r.t.r.7.7.r.r.",
",.-.:.e.e.e.e.e.e.e.7.e.:.:.&.&.v 7 7 7 7 7 7 7 7 - - - - - - - - i :.;.,.,.,.,.,.,.1.,.>.-.:.:.w.,.",
"i.1.1.e.1.1.,.1.7.,.7.,.:.7.,.7.1.*.b q 7 7 7 7 7 - - - - - : 9 } ,.,.,.-.;.:.:.1.-.:.-.>.-.-.1.w.w.",
"e.,.,.e.7.e.7.e.7.7.7.7.e.e.,.,.1.,.1.7.X.c h w q : : < 9 z <.-.-.,.:.%.,.,.,.1.1.,.,.,.e.e.w.w.w.r.",
":.,.,.e.e.r.e.t.t.e.e.r.t.t.7.7.7.e.7.r.:.7.i.t.t.u.,.r.,.1.e.1.7.e.7.1.e.e.7.7.e.1.7.e.e.,.>.>.>.,.",
"e.e.e.e.,.,.,.,.,.,.,.,.7.7.7.7.e.7.,.e.h.g.a.d.a.1.1.e.y.u.u.u.r.7.1.e.r.e.7.7.1.e.e.r.w.>.-.-.>.w.",
"7.1.e.u.,.1.,.,.,.7.,.7.,.7.,.-.,.1.7.r.,.,.u.d.e.e.e.u.d.e.1.7.e.7.e.r.e.7.7.e.e.1.e.e.w.w.>.>.,.w.",
"e.:.:.,.>.,.:.:.>.:.,.:.1.7.7.7.e.r.e.u.&.+.R ] -.:.u.d.:.-.>.r.r.1.1.r.1.e.e.e.e.e.1.1.w.>.;.;.-.,.",
",.-.;.:.,.7.:.u.h.a.7.e.e.7.e.t.u.e.e.t.r.,.+.#.-.,.e.$.e.e.r.7.e.r.r.1.1.r.e.1.1.1.e.,.,.-.=.@.%.1.",
"1.:.,.e.t.:.e.a.&.+.u.7.7.e.7.,.,.e.e.1.e.-.,.-.-.e.7.7.e.1.,.,.7.7.1.,.7.1.e.1.7.e.1.e.w.>.$.-.1.e.",
",.:.>.7.e.,.e.d.+.~ e.1.,.,.,.,.1.e.r.t.7.1.e.1.-.,.7.e.e.,.:.7.e.1.1.1.e.,.1.e.r.e.w.u.e.u.1.>.:.1.",
",.:.:.,.7.u.7.r.e.-.,.7.e.e.e.u.i.u.u.u.u.a.r.u.u.e.u.e.u.e.7.e.t.r.e.e.r.r.e.t.t.r.t.u.i.u.1.e.e.r.",
"u.t.u.u.u.u.e.e.u.u.e.u.u.a.a.u.t.u.t.7.u.r.r.u.a.i.u.u.t.u.i.u.t.t.u.i.i.i.u.i.u.u.i.r.u.1.,.&.-.e."
};
