/* XPM */
static char *result[] = {
/* columns rows colors chars-per-pixel */
"50 50 112 2 ",
"   c #5D5F5E",
".  c #5E605F",
"X  c #646665",
"o  c #6C6E6D",
"O  c #727473",
"+  c #777978",
"@  c #797B7A",
"#  c #7E807F",
"$  c #FF9100",
"%  c #FF9800",
"&  c #FEA200",
"*  c #FEAF00",
"=  c #FDBF00",
"-  c #FEBF0A",
";  c #FDC103",
":  c #FEC40B",
">  c #FBC513",
",  c #FED11E",
"<  c #F0C228",
"1  c #F7C92E",
"2  c #FFD424",
"3  c #FFD728",
"4  c #FFDA2D",
"5  c #F7CA30",
"6  c #FCCF33",
"7  c #FEDA33",
"8  c #F3D23B",
"9  c #CCB14C",
"0  c #CCBB65",
"q  c #F8CD41",
"w  c #FAD146",
"e  c #FCDC45",
"r  c #F4D84E",
"t  c #F7DB53",
"y  c #FADF5C",
"u  c #FCE15E",
"i  c #E0CC67",
"p  c #F2D771",
"a  c #F5E079",
"s  c #F8E47E",
"d  c #838584",
"f  c #848588",
"g  c #8B8D8C",
"h  c #8E908F",
"j  c #929393",
"k  c #969897",
"l  c #96979B",
"z  c #979998",
"x  c #9B9D9C",
"c  c #9EA09E",
"v  c #9D9EA1",
"b  c #9FA1A0",
"n  c #A2A4A3",
"m  c #A6A8A7",
"M  c #A8AAA7",
"N  c #A4A5A9",
"B  c #A7A9A9",
"V  c #AAACAB",
"C  c #AFB1AE",
"Z  c #B3B2A2",
"A  c #B0B2AF",
"S  c #BEBBA9",
"D  c #ADAEB1",
"F  c #AFB1B0",
"G  c #B3B5B3",
"H  c #B6B8B6",
"J  c #B8BAB7",
"K  c #B7B9B8",
"L  c #BBBDBB",
"P  c #BFC1BE",
"I  c #D4C88D",
"U  c #F1DF85",
"Y  c #E6DB9F",
"T  c #FAE682",
"R  c #DCD2A7",
"E  c #C0C2BF",
"W  c #D9D2B2",
"Q  c #F4E6AE",
"!  c #F5E7B0",
"~  c #BFC1C0",
"^  c #C3C5C3",
"/  c #C7C9C6",
"(  c #C8CAC7",
")  c #CBCDCB",
"_  c #CFD1CE",
"`  c #D8D7C7",
"'  c #D0D2CF",
"]  c #DBDACC",
"[  c #CFD1D0",
"{  c #D3D5D3",
"}  c #D6D8D6",
"|  c #D8DAD7",
" . c #D7D9D8",
".. c #DBDDDA",
"X. c #DEE0DD",
"o. c #E0E2DF",
"O. c #ECEADC",
"+. c #F1EFDC",
"@. c #DFE1E0",
"#. c #E3E5E2",
"$. c #E6E8E6",
"%. c #E8EAE7",
"&. c #E7E9E8",
"*. c #EBEDEA",
"=. c #EFF1ED",
"-. c #F4F3E3",
";. c #F0F2EF",
":. c #EFF1F0",
">. c #F3F5F2",
",. c #F6F8F5",
"<. c #F9FBF6",
"1. c #FCFDFB",
/* pixels */
"*.*.$.$.$.*.*.>.>.>.,.,.*.*.:.=.;.%.} { P E { ......X.' *.=.>.*.%.=.*.=.,.%.o.$.*.o...} X.$.=.*.#.X.",
"*.>.>.>.*.*.*.=.>.>.>.,.*.*.*.>.>.#.{ ^ } ^ _ ....} #.*.;.*.=.%.%.=.%.$.} X.#.X._ ^ ( { $.*.*.*.o.X.",
"$.=.=.,.*.*.*.*.*.*.%.$.$.%.$.*.*.X.{ H ..{ #.*.;.=.*...;.>.%.%.%.*.=.#.X.>.,.X._ } X.} $.*.=.*.*.$.",
"%.*.%.*.o.$.*.*.%.*.%.#.*.*.%.:.*.$.X.^ H ( #. .' ..>.=.=.;.*.$.$.$.%.$.$.*.$.X.X.=.=.o.>.=.*.%.$.$.",
"$.*.=.*.{ #.*.*.=.,.=.$.$.#.$.%.%.%...^ ^ ( @.#... .&.$.=.;.>.$.o.$.$.%.=.o.o.$.$.X.#.*.,.*.X.X.#.$.",
"*.*.*.*.*.*.=.*.%.$.%.*.=.>.*.*.%.=.%.H ) J K  .#.#.:.&.*.>.*.$.o.X.%.o.' X.} } X.%.X.%.%.=.*.=.*.*.",
"=.=.=.;.>.>.>.>.*.=.=.=.=.>.*.>.*.*.*.H m F ~  .$.@.$.:.>.1.;.*.;.%.X._ o...$.o.#.=.%.>.%.>.,.$.$.=.",
">.>.;.;.>.>.,.>.>.=.=.>.=.>.*.*.*.=.%.J n ^  .*.>.@.{  .<.*.>.>.%.%.o.X.} ..%.$.$.%.=.;.<.*.*.*.*.*.",
"=.>.;.;.#.#.$.#.o.o.o.#.>.>.*.>.*.*.%.J B ~ / [ .. ...&.=.| $.#.o.=.X._ ( ..%.$.X.#.=.#.*.$.#.*.>.$.",
"*.*.=.*.>.>.>.,.;.=.=.>.=.=.%.*.%.*.%.G j N I r 7 - 6 O. .$.#.{ #.>.$.=.....;.=.{ $.#.#.*.*.;.=.=.%.",
"*.*.*.*.*.*.*.*.$.$.$.%.*.*.$.%.$.*.#.G k i 4 4 4 = = ; W ;.#.#.;.%.o.=.$.%.=.=.X.X.{ =.>.=.=.X.=.,.",
";.=.=.=.*.*.*.*.%.$.%.%.$.%.$.$.#.%.#.C 0 4 4 4 4 = = = ; %.%.%.} / } X...$.o.%.*.X...=.*.,...C X.>.",
">.=.=.>.%.*.*.*.%.$.$.%.%.$.#.$.o.#.o.Z 4 4 4 4 2 = = = ; > *..._ X.$.} { _ *.>.;.=.*.=._ ..#.X.,.=.",
"=.=.=.>.>.{ { >.$.#.=.*.$.$.$.%.%.#.%.8 4 4 , = = $ & = = = Q X.=.$.$.;._ { %.*.X.o.=.#.*.%.#.X.$.#.",
"*.*.*.*.>.#...*.*.>.=.*.$.*.*.*.*.*.-.4 4 , = = = $ $ % = = : ..^ / ' _ C =.%._ $.=.} ..$.%.=.#.X.*.",
">.=.>.=.;.,.>.>.*.*.#.*.%.=.=.*.=.*.u 4 4 = = = = $ $ $ & = = ] ( ' ..{ A { ..| =.%...X.=.$.%.=.=.=.",
",.>.>.>.=.<.>.=.;.>.$.>.=.*.*.=.>.*.4 4 : ; = = = $ $ $ $ = = q $.@.<.>.X._ #.<.>.>.<.:.*.>.:.X.{ { ",
">.,.>.>.>.<.>.>.*.*.$.*.>.=.=.,.,.+.4 4 = = = = = $ $ $ $ & = ; | { <.=.:.<.=...X.*.#.} X.$.#.#.=.,.",
":.=.=.=.=.>.=.>.*.%.:.<.*.=.=.*.*.s 4 , = = = = = $ $ $ $ $ = = @.=.>.%._ ..P P #.*.X.,.:.*.&...( ( ",
"=.=.=.=.*.%...X...X...#.$.$.&.&.%.7 4 : ; = = ; = $ $ $ $ $ = = +.:.@.X.1.$._ X.>.$.X.=. . ... .X.%.",
"=.:.=.=.*.*.$.X.| #.X.*.&.&.$.*.*.4 4 = = = : , , - - $ $ $ * = p } @.@.1.>.$.@.=.>.&...*.:.*.&.=.*.",
">.:.*.:.,.,.O.X.=.=.=.;.1.&.*.:...4 4 = = = , 4 4 = = $ $ $ % = 5 [ X.&.&. . .@.%.#.@.*.&.#.@.&.*.=.",
"@.@.X.#.o.*.-.;.*.%.;.,.:.&.*.#.{ 4 4 = = = , 4 4 = = $ $ $ % ; > ..@.&.X.@.*.:.&.@.#.:.*.&.&.:.=.&.",
"F F H H G L H E ( _ ' ' [ [ { } ^ 7 3 = = = , 4 4 = = $ $ $ $ = : @.:.:.&.@.@.@.#.*.&.#.:.>.&. .{ &.",
"O # + + @ g b n V V b V n z x V b 4 2 = = = 2 4 4 = = $ $ $ $ = ; [ { { {  .[ ) [ { { [ ~ ~ K b b P ",
"X o . O X . d h j n g g h @ O # + 4 2 = = = , 4 4 = = $ $ $ $ = ; V V b b B V V N b b b b b b b b b ",
"+ j @ f l f v x v N j j F V b n c 4 3 = = = , 4 4 = = $ $ $ $ = ; b M M B c z b b x k k l x b b b z ",
"O j g m N b D N v l f f V V N F F 4 4 = = = , 4 4 = = $ $ $ % = > G H H ~ K G G F V D F b F G b b B ",
"@ x h g B b b b z x B N m c k F G 4 4 = = = , 4 4 = = $ $ $ % ; < G M M H H G H G V B V B D F K G F ",
"j m c j b n N N n c x x k c c c m 4 4 = = = : , , - : $ $ $ * = 9 c M C M C H P K G G G D F V F G F ",
"C J P H M V F F A G C C C G ~ / ^ 7 4 : = = = = = $ $ $ $ $ = = P Z C c G C M M M M F G F N N D F b ",
"o...*.=...X.@.$.%.*.*.=.%.;.>.>.>.T 4 , = = = = = $ $ $ $ $ = = ,.%.X.) P P H H P P P P ~ L ~ G ~ [ ",
"$.( _ =.*.*.;.>.>.<.<.,.>.<.>.%.=.O.4 4 ; = = = = $ $ $ $ & = = >.$.,.>.;.>.>.,.,.>.*.%.<.$.>.>.;.=.",
"=._ ' ,.*.*.=.=.*.*.%.%.>.*.>.>.=.>.4 4 : = = = = $ $ $ $ = = w *.>.>.>.,.,.,.>.>.*.;.>.;.;.<.>.;.>.",
"..) ..o. ...| ..| } { ' ..#.$.$.$.%.y 4 4 ; ; = = $ $ $ & = = O.:.$.*.%.%.%.%.$.#.#.#.%.,.=.X.%.O.$.",
";.<.1.1.1.1.1.1.1.1.1.1.*.1.<.,.<.,.-.4 4 , = = = $ $ % = = : ,.,.,.>.>.=.;.>.>.>.>.>.>.-.-.X.;.;.;.",
"X.=.*.;.o.#.$.%.*.;.;.;.,.,.>.*.=.*.*.e 4 4 , ; = $ & = = = Q <.<.<.<.=.,.,.>.,.1.1.<.>.,.<.<.<.=.=.",
"/ ^ ( ( ) ) ) _ ) ) ) ) ( ) ) ) ' ' ' ` 4 4 4 4 2 = = = = > %.#.#.#.....$.$.#.#.@.$.%.$.%.$.#.o.@.&.",
"| { ..o.#.#.#.o.#.#.#.#. . .{ { } |  .#.U 4 4 4 4 = = = = *.o... .....}  .......X....... .[ } | @.@.",
"=.o.X.#.X...X.X...o.o.....X... .o.....X.%.a 4 4 4 = = = R ...... .....X.} } |  ...| } {  .} } X.@.@.",
"o.....#.o.o.o.o.o.o.o.o.o.#.....X...X.o.;.{ Y t 4 : 1 ] | ....| } X.| ' | X.X.X.X...X.| #.@.@.@.@.#.",
"..| o.o.%.#.$.%.#.%.$.%.%.%.o.X.o.#.o.%.| o.*.%.%.%...%...o.o...X.#.o.X.#.#.X.X.X.X.#.#.#.X... . ...",
"o.#.#.#...................o.o.o.o.o.X.#.1.<.;.,.;.o.X.#.%.*.*.*.#.X.o.#.$.#.#.X.@.X.$.#.@...{ [ } X.",
"o.o.#.*...X.X...o...o...o.o...} ..X.o.%.....*.>.#.o.#.*.;.%.o.o.#.o.o.$.#.o.o.o.@.#.#.#.@... ...X.@.",
"#.| } ..| | ..| ..| | ....o.o.o.#.%.#.%.' E A E { ..%.>.| { ..%.%.X.X.$.X.X.#.$.#.#.X.X.@...{  .} } ",
"..} { | ..o.| %.1.;.o.#.#.o.#.%.%.%.#.%.%...( ( { ..#.) o.#.#.o.o.$.$.o.X.$.#.X.X.X.#.....[ [ / _ X.",
"o.| ..#.%.| o.;._ ^ *.o.o.#.o.....o.o.o.#.{ ..' ' #.o.o.#.o.....X.X.X.X.#.X.#.#.@.#.X.#.@.} [ [ X.#.",
"..} ..o.#...%.;.^ J #...X.......o.o.$.%.o.o.#...| o.o.o.#...| o.#.X.X.X.X.X.X.#.#.#.@.%.$.*.X.} | X.",
"..} } ..o.%.o.%.o.' o.o.o.o.#.*.;.*.*.*.*.;.%.*.%.#.*.$.%.#.o.#.%.%.#.#.%.%.#.%.*.#.%.*.=.=.X.#.#.$.",
"*.*.*.*.*.*.#.o.;.*.#.*.;.;.;.*.%.%.%.o.*.%.%.%.;.;.*.*.%.*.=.*.%.%.%.=.=.=.=.=.%.%.=.%.%.X..._ } #."
};
