/* XPM */
static char *result[] = {
/* columns rows colors chars-per-pixel */
"50 50 92 1 ",
"  c #020101",
". c #0D0D00",
"X c #0B0B0B",
"o c #171602",
"O c #1D1D00",
"+ c #141414",
"@ c #191919",
"# c #5D5F5E",
"$ c #5E605F",
"% c #646665",
"& c #676968",
"* c #6A6C6B",
"= c #6E706D",
"- c #737574",
"; c #777978",
": c #7A7C7B",
"> c #7E807F",
", c #BB8B31",
"< c #C39133",
"1 c #C89534",
"2 c #CE9936",
"3 c #D8A038",
"4 c #F3F300",
"5 c #F8F702",
"6 c #F8F800",
"7 c #F9F913",
"8 c #F7D622",
"9 c #F8D820",
"0 c #F9DB2E",
"q c #F9DC33",
"w c #80827F",
"e c #838584",
"r c #848588",
"t c #8B8D8C",
"y c #8E908F",
"u c #929493",
"i c #979997",
"p c #989A97",
"a c #96979B",
"s c #979998",
"d c #9B9D9B",
"f c #9EA09E",
"g c #9D9EA1",
"h c #9FA1A0",
"j c #A2A4A3",
"k c #A6A8A6",
"l c #A8AAA7",
"z c #A4A5A9",
"x c #A7A9A9",
"c c #ABACAB",
"v c #AFB1AE",
"b c #B0B2AF",
"n c #ADAEB1",
"m c #AFB1B0",
"M c #B3B5B4",
"N c #B6B8B6",
"B c #B8BAB7",
"V c #B7B9B8",
"C c #BBBDBB",
"Z c #BEC0BE",
"A c #C0C2BF",
"S c #BFC1C0",
"D c #C3C5C3",
"F c #C6C8C6",
"G c #C8CAC7",
"H c #C7C9C8",
"J c #CBCDCB",
"K c #CFD1CE",
"L c #D0D2CF",
"P c #CFD1D0",
"I c #D3D5D3",
"U c #D6D8D6",
"Y c #D8DAD7",
"T c #D7D9D8",
"R c #DBDDDB",
"E c #DEE0DE",
"W c #E0E2DF",
"Q c #DFE1E0",
"! c #E3E5E2",
"~ c #E6E8E6",
"^ c #E8EAE7",
"/ c #E7E9E8",
"( c #EBEDEA",
") c #EFF1EE",
"_ c #FEFEE2",
"` c #F0F2EF",
"' c #FFFFE8",
"] c #EFF1F0",
"[ c #F3F5F2",
"{ c #F6F8F5",
"} c #FCFDF4",
"| c #FDFEFC",
/* pixels */
"((^~^(([[[{{)()))^YLAAUERYEL(([(()((}~E~)WEUE~)(!E",
"([`[((()[[[{((([`!YDIDJREU!(`))^^`^~YEQEKZJL~~)~QE",
"~)){(((((^(^!(!)(RINRI!(`)(R`[^~(()~E`}EKUEY~(()(~",
"^(^(W~((((~!((()(~EDMG!YKR[)``^^W~(W~(/EE))E{)(~~~",
"~()(IW((){)!~!!^^^RDDG!!RT^!)``~E^W()WW~~EE){(EEE~",
"((((())(^~^(``()^)^NJNVT!~]/)`(^EE(WLEUYE^E~^)()))",
")))`[[[[)))```(`()^BkMCT~R~[`|`(`(EKWE~WW)^{^{[~~)",
"[`[``[{[`))[`[()()^BjDT({QIT{)[[^~EEIE(W^^)`}((()~",
"````!!~!WWW!``()()^NxSHPTTR/]T~!E`EKJY(~EQ)!)~E))!",
")()([[{[``)[)`()~)~NuzZKPR]]T/!PW[^)YE[(U~/Q)^`)))",
"((((^(((~~~(((^^~^~msVR]//!HI[!!{~W)W()(EEU(`))E){",
")))`((((^~~^^(!~!~QvdD!~RQQH~(^/YAYEE^W()EU)(}EvE{",
"`[``^(((^~^^^~!~E~Ec-C!ERT~([!(RJE^YLK([))()KEEE{)",
")))[[II[~!)(~!!^(!^p=MJRR!!G[[)E`~~`JU^(EE)!)^EE!!",
"()(([!R)(`)(^(((()[fuY!YI!Y^[))EZFLKv`(K~)UY~^)/E)",
"`)`)[[{`()W(())())`fiYY![(I!])~YJLELvUYY)^EE)~~`))",
"[[{[)}{`[[~))((])()jpGK!WEKK~W(!!!{{EPQ}[]|)([)EIU",
"{{[[[}``((~([)){{){k>FWEE`([EU|{YI}))|(EQ(QUE~QQ([",
"))))([){(~[|^)()))`fs!QI!!REUR()!)](KRZZE(E{](QRGG",
"()))(/RERER!!^//~^)pMRSJ)!)~^{^W]]QQ|QKE{~E[TRQRE(",
"])])))~EY!E(//!()~(ffZHR[Q]RW![~QRQQ|]~Q)[/R()](((",
"[[/]`'WW)`)`|/([R~/uJRQ][]QH|(UUPPQ//RTQ(QQ((QQQ(`",
"RRE~W((`(^`{]~^~K(/yDR//QRTT[[](QRQ(RQ/]/EQ](Q/]`^",
"mMVMNBBAJJLLPPITFIJ>M~]{]QITRQQII/(]Q/QQ~((Q]{(TU^",
"->;;;thzczjcjadljdd&cQX    X[QHMCPUPTPPJPIIPSSVhfZ",
"%*#-%$wyijttt:->;-:&+@R!!!!R@@Mzkcchhccnxhhhhhhhhf",
":u:rurhggzuyMcgjgjnh  {||||{  znchkkkhdhhsuaadhhfp",
"-utxxhnzgarrlckmvx+X||q9889993 +VMNNSVmMmcnMhmMhfl",
":pytxghzadczldiMMdX |955||5593 XvNvcBNMNMcccncmVMm",
"ulfuhzzzjfddsfdfkl+ |9_'7qoO581,XfkvlvNZVMMMnnxmMm",
"vBANlccvbbMbvMSDD (|96}|69..6931 vvfMvllklvMmxhnmh",
"WE^)REQ~^(((^[[[{ (|96}|69 .6931 )UJZZNNZZZZSCSVSP",
"~KK)((`[[{{{[{[(] ^|86}}69..6931 ~{[[)[{{[(^{!{[`)",
")GL{(()))(^^``[`] (|96}|69 .6931 )[[{{{{[()[[`{{`{",
"RGYWYYYYYIILR!~!! (|96}}68..6931 ^)^^^(~!!!('`E^W^",
")|||||||||||)||{| (|96}|68 .5931 {[))``[[)[[)(E`[`",
"E)(`W!~^)`))[[[)( (|96}|69..5831 {{`{{[[|||{'}|}``",
"DDGGKJJKGJJKGJJGP (|96'}59 .5931 !RR^!!!Q~Q~/QQQQ~",
"YUYWWW!W!!!!YYILI (|96}|99..5931 RYYRRRREERRTPTTEQ",
"`WE!EEEEEERERERRQ (|96}|99 .5931 RRRIYYRUUUITUTEQQ",
"WRR~WWWWWWWWW!EYRR+ 9664  4593 @YEYLEEEEEEEEEQQQQQ",
"RYEW~~~~~~~~~^WW!W+ 9664  4593X@EWEEE!EWEEW!QERRUE",
"WW~WRRRRRRRYWWWW!W+ 9999999833.@WEW~~WWWEQ~~QRIPUE",
"WWW^REEEEREEWWYUREE~  233332  WW~WW~!WWWQQW!QETTEE",
"~YUEYYRYYRYYEWWE!~!^++,<<<<,@@Y~~EE~EE~~~!EEETIUYY",
"RULURWY^|`W!WWW^^~~~(YX    XW~WWE~~WE^WEEEQERIPHKE",
"WYEW^YW`KD(WWWWERW!E!IRII!EEWWRWWEEEWE!EE!EQEUKIEE",
"RYRW!R^`DNWEERREE!~^WE!RYRE!WRYWWEEEEEE!!~E/~(EUYE",
"RYYEW^W~WIWWWW~(`((((`~(^W`~^WWW(~W~~~W(^~^^)(EEW^",
"(^^(((WW`(W(([`(^^^W(^~(``((~`)(^(((([)((()^(EELEW"
};
