/* XPM */
static char *result[] = {
/* columns rows colors chars-per-pixel */
"50 50 86 1 ",
"  c #020101",
". c #0D0D00",
"X c #0C0C0C",
"o c #171602",
"O c #1D1D00",
"+ c #141414",
"@ c #171817",
"# c #181817",
"$ c #1A1A1A",
"% c #5D5F5E",
"& c #5E605F",
"* c #646665",
"= c #6C6E6D",
"- c #6E706D",
"; c #737574",
": c #777978",
"> c #797B7A",
", c #7E807F",
"< c #BB8B32",
"1 c #C39133",
"2 c #C89534",
"3 c #CE9936",
"4 c #D8A038",
"5 c #F3F300",
"6 c #F8F702",
"7 c #F8F801",
"8 c #F7D622",
"9 c #F8D820",
"0 c #F9DB2E",
"q c #838584",
"w c #848588",
"e c #8B8D8C",
"r c #8E908F",
"t c #929393",
"y c #969897",
"u c #96979B",
"i c #979998",
"p c #9B9D9C",
"a c #9EA09E",
"s c #9D9EA1",
"d c #9FA1A0",
"f c #A2A4A3",
"g c #A6A8A7",
"h c #A8AAA7",
"j c #A4A5A9",
"k c #A7A9A9",
"l c #ABACAB",
"z c #AFB1AE",
"x c #B0B2AF",
"c c #ADAEB1",
"v c #AFB1B0",
"b c #B3B5B3",
"n c #B6B8B6",
"m c #B8BAB7",
"M c #B7B9B8",
"N c #BBBDBB",
"B c #BEC0BE",
"V c #C0C2BF",
"C c #BFC1C0",
"Z c #C3C5C3",
"A c #C7C9C6",
"S c #C8CAC7",
"D c #CBCDCB",
"F c #CFD1CE",
"G c #D0D2CF",
"H c #CFD1D0",
"J c #D3D5D3",
"K c #D6D8D6",
"L c #D8DAD7",
"P c #D7D9D8",
"I c #DBDDDB",
"U c #DEE0DE",
"Y c #E0E2DF",
"T c #DFE1E0",
"R c #E3E5E2",
"E c #E6E8E6",
"W c #E8EAE7",
"Q c #E7E9E8",
"! c #EBEDEA",
"~ c #EFF1EE",
"^ c #F0F2EF",
"/ c #EFF1F0",
"( c #F3F5F2",
") c #F6F8F5",
"_ c #FCFDF4",
"` c #FDFEFC",
/* pixels */
"!!WEW!!((())~!~~~!KGBZJIIIUG!!(!W~W~)WYR~RUKYE~!RU",
"!(^(!!!~((()!!!(~RKZJZFIUJR!^~~WW^WWKYRUDVSJRW~WYU",
"E~~)!!!!!W!WR!R~!UJnIJR!^~!I^^WW!!~RU^)YGKULE!!~!E",
"W!W!YE!!!!ER!!!~!EUZnSRPFI(~^(WERW!RR~WUY!~Y)^!WEE",
"E!~!JR!!~)~RERRWWWIZZSTRIIQE~~^EYRWW~YYWRYY!)!UURR",
"!!!!!!~!WEW!^^!~W~WnFnMPTR/Q~(!WYYWYGUKKYWYWW^W~!~",
"~~~^((((~~~^^(!^!~WmgzNIRTE/^`^!^!UGYUWYY~W(W()EW~",
"^(^(^()(^~~(^^!~W^WmfZP!)TJL)~((WRYULL!RWW^^_!!!!!",
"^^^^RRERYUYR^^!~!~WmjCAHIPTQ/PQTY^UGDK!RUR~R!ER!^E",
"~!~!(()(^^^(~~!~W!WbtjCHHI/!PQRHY)R~IU(~KRRR!!^~~W",
"!!!!W!!!EEEW!~E!R!RbuMI/QQQAJ/RR)RY~R~~WUUJ~(~~I~)",
"~~~^W!~!EEE!WWRWRWRzpZRRIIIDR!!QKZKUURYW~II^!)IzU(",
"(~~(W!!!WEE!EERRYRYz:NTTIIRW(EWUFUWKGF!)^~!~FIRR)~",
"~~~((JJ(ER~!ERRWWRWp=bHIIRRS()~I^EW^FJWWUY~R!EYUER",
"~~!!(RI~~(!!W~!!!!^prPX    X(~/UZZGFz^!FE~KLE!!RU!",
"~~~^(()~!!R!W~~!~~(a+@IRRRRI$$EKSGIJxJKI~WIY~E!~~~",
")()(^_^^/)W(!!W(^!^d  (````)  !RRR))IJR_(()(!(~UJJ",
"()(((_^^!WQQ(~^))^#X``08999984 +PK)~~`!IU!RKUERR!_",
"~^^~!)!_!W(_!(/!~~+ `966``6694 +UW)WFLZBR!T(/!QISS",
"!!~!!WYYLIIRREWWWW# `966``oO682<+(TI`RFU(EU(PPIPUW",
"(!(!~~YYLRY!WWQQ! Q`96__79 .7942 PTR`/ET~(QI!/!Q~!",
"((Q/^_YY^^^^`QQ(L !`97_`79 .7942 HIQQIPT!TTQ!RTQ!~",
"TITRY!~^WW^)/W!RJ Q`97__79..7942 ITQITQ/ETR/!QQ/~E",
"cbMMnmmVDDGGHDKKZ Q`97_`79 .7942 Q!/RQRTR!QR/(QPKW",
";,>:>edfkldlfiulf !`97__79 .6842 HJJJPHDHJJHCCMdaB",
"*=%;*&qeudeee>;,: Q`97_`79..6842 hlffjlljddddddddd",
":t>wtwspsjttbldfs !`97__79..7942 fkhjaiddiuuupddai",
";tekjjcjsuwwllgcc !`97__79 .7942 bnnCnbbbllbdvbddk",
":preksjjypkjkpybb W`97_`98 .7942 nzhnnbnblklkcvnbv",
"thatfffffdppiapdh Q`97_`98..7942 ahzhznBnbbbcclvnv",
"xmVnlllzxbxxxnNZZS@ 9755  5694X#nzzabzhhhhzbvkdlvs",
"YIW^IIRRW!!!W^)()(@ 9775  5594X$)WUDBBnnBBBBCCCMCH",
"RDG^!!^(()))()(!~!+ 9989999844 $(Q((~(())(!W_E((^!",
"^DG)!!~~~!WW(~^((^^!  344443  )/!((()))((~~(~~_)~_",
"IDLYLLLIKKGGIRREWE!($@<1111<$$I!~E~WE!WERRR!_^URYW",
"~_``````````~``)_)(`_`X    X_)))))((~^^(~(((~!U~^(",
"U~!^YREW~~~~(((~^WWWRW^W!!((!~()`__!)(()```)____~^",
"ZZSSDDDDDFDDSDDDGGGLLILYUIEIYRRERTUIQQRRUTEEEETUTQ",
"IKLRRRRRRRRRLLJFGIIYYRYIURR(^!YIPILJIIIIUUULPHKLUT",
"!RIRUIUUUIUIIUIIYUIYWWIILURRJIULPIUUJKPILKKJPKKUTT",
"YIURYYYYYYYYYRUIYYUY^KIIIYLIIIILKULFUUUUUUUUUTTTTT",
"IIUYREERWRWRWWYUYYYRIY!EWEIEIYYUURUUURUYUUURTULLKU",
"YYYEUUIIIIIIUYYYYYYY`)^)^YYYEW~WRUUEEYYYURRETIKJKU",
"YYYWIUUIUUUIUUIKIYYWII~^EYEW^EYYEYYWRYYYTTRRTUPPUU",
"YLKULILILIIIUYYUYERWGVxVGIW)IGIEEUUEUURERRUUTIJJKL",
"UKJKIYKW`^YRYYYWWEEEWIASGYYSYRRYUEEUUWRUUUTUIHHSFU",
"YLIYWIY^FZWYYYYUUYYYYKIGGRYYYUIUYUUUYURUTRURTPHJUY",
"ILIYYUW^VnYUUIIUYYEEYYYUIYYYRILYYUUUYUURRETWR!UKKU",
"ILLUYWYWYJYYYYE!^W!^W^W~WR^EWRYR!EEYEEY!!Y!W~!UUYE",
"!WW!W!EY^WYW^(^WWWWYWWEW^^!WE~^WE!!!~^!~!!~W!UUJUY"
};
