/* XPM */
static char *result[] = {
/* columns rows colors chars-per-pixel */
"32 32 61 1 ",
"  c #FF9100",
". c #FF9300",
"X c #FF9400",
"o c #FF9700",
"O c #FF9800",
"+ c #FE9E00",
"@ c #FEA000",
"# c #FEA100",
"$ c #FEA300",
"% c #FEA400",
"& c #FEA500",
"* c #FEAF00",
"= c #FFA908",
"- c #FEB000",
"; c #FEB100",
": c #FDB600",
"> c #FDBA00",
", c #FDBB00",
"< c #FDBE00",
"1 c #FDBF00",
"2 c #FDBF01",
"3 c #FEBF0A",
"4 c #FDC001",
"5 c #FDC002",
"6 c #FDC102",
"7 c #FDC103",
"8 c #FDC204",
"9 c #FDC205",
"0 c #FDC305",
"q c #FDC307",
"w c #FDC308",
"e c #FEC00A",
"r c #FDC408",
"t c #FDC60B",
"y c #FEC60D",
"u c #FEC70D",
"i c #FEC60E",
"p c #FEC70E",
"a c #FEC70F",
"s c #FEC80D",
"d c #FEC80F",
"f c #FEC90F",
"g c #FDCA12",
"h c #FECA13",
"j c #FECC15",
"k c #FED01D",
"l c #FED11D",
"z c #FED11E",
"x c #FED11F",
"c c #FED21F",
"v c #FFD424",
"b c #FFD524",
"n c #FFD728",
"m c #FFD829",
"M c #FFD92C",
"N c #FFD92D",
"B c #FFDA2C",
"V c #FFDA2D",
"C c #FFDB2D",
"Z c #FFD92E",
"A c None",
/* pixels */
"AAAAAAAAAAAAVBVV27qsgAAAAAAAAAAA",
"AAAAAAAAACVVVVVV111116uAAAAAAAAA",
"AAAAAAAAVVVVVVVV11111116fAAAAAAA",
"AAAAAAVVVVVVVMnv:>1111111rAAAAAA",
"AAAAAZVVVVBkd511  .@*<11119AAAAA",
"AAAAVVVVVzq11111     o;11119AAAA",
"AAAVVVVBh1111111       $<111rAAA",
"AAAVVVBu11111111        +<111iAA",
"AAVVVVh111111111         %1114AA",
"ACVVVz1111111111          -111yA",
"AVVVBq1111111111          o<115A",
"AVVVk111111tzzzz333e=      *111g",
"VVVVp111111zVVVV1111e      @111u",
"BVVM5111111cVVVV1111e      .<11r",
"BVVn1111111cVVVV1111e       ,118",
"VVVb1111111cVVVV1111e       :114",
"VVVv1111111cVVVV1111e       :114",
"BVVm1111111cVVVV1111e       ,118",
"BVVM5111111cVVVV1111e      X<11r",
"VVVVd111111zVVVV1111e      @111y",
"AVVVk111111tzzzz333e=      *111g",
"AVVVBq1111111111          O<116A",
"AVVVVx1111111111          ;111uA",
"AAVVVVh111111111         &1114AA",
"AAAVVVBu11111111        +<111aAA",
"AAAVVVVBj1111111       $<111rAAA",
"AAAAVVVVVcq11111     O;11119AAAA",
"AAAAAVVVVVBld511  .#*<11110AAAAA",
"AAAAAAZVVVVVVNmv:><111111rAAAAAA",
"AAAAAAAVVVVVVVVV11111114aAAAAAAA",
"AAAAAAAAABVVVVVV111116uAAAAAAAAA",
"AAAAAAAAAAAABVVV48wugAAAAAAAAAAA"
};
