/* XPM */
static char *result[] = {
/* columns rows colors chars-per-pixel */
"50 50 98 2 ",
"   c #5D5F5E",
".  c #5E605F",
"X  c #646665",
"o  c #676968",
"O  c #6A6C6B",
"+  c #6E706D",
"@  c #737574",
"#  c #777978",
"$  c #7A7C7B",
"%  c #7E807F",
"&  c #FF9100",
"*  c #FF9800",
"=  c #FEB100",
"-  c #FDBF00",
";  c #FEBF0A",
":  c #FDC104",
">  c #FDC40A",
",  c #FCC513",
"<  c #FED11E",
"1  c #F7C92F",
"2  c #FFDA2D",
"3  c #FBCE34",
"4  c #FEDB36",
"5  c #FCDA3C",
"6  c #80827F",
"7  c #FBDB44",
"8  c #F5D84F",
"9  c #EFDA73",
"0  c #F2DE78",
"q  c #F6E17D",
"w  c #F8E47E",
"e  c #838584",
"r  c #848588",
"t  c #8B8D8C",
"y  c #8E908F",
"u  c #929493",
"i  c #979997",
"p  c #989A97",
"a  c #96979B",
"s  c #979998",
"d  c #9B9D9B",
"f  c #9EA09E",
"g  c #9D9EA1",
"h  c #9FA1A0",
"j  c #A2A4A3",
"k  c #A6A8A6",
"l  c #A8AAA7",
"z  c #A4A5A9",
"x  c #A7A9A9",
"c  c #ABACAB",
"v  c #AFB1AE",
"b  c #B0B2AF",
"n  c #ADAEB1",
"m  c #AFB1B0",
"M  c #B3B5B3",
"N  c #B6B8B6",
"B  c #B8BAB7",
"V  c #B7B9B8",
"C  c #BBBDBB",
"Z  c #BEC0BE",
"A  c #CBCAB7",
"S  c #C0C2BF",
"D  c #E6DBAE",
"F  c #E2DBBC",
"G  c #EFE6BB",
"H  c #BFC1C0",
"J  c #C3C5C3",
"K  c #C7C9C6",
"L  c #CACBC5",
"P  c #C7C9C8",
"I  c #CBCDCB",
"U  c #CFD1CE",
"Y  c #D0D2CF",
"T  c #DBDACA",
"R  c #CFD1D0",
"E  c #D3D5D3",
"W  c #D6D8D6",
"Q  c #D8DAD7",
"!  c #D7D9D8",
"~  c #DBDDDA",
"^  c #DEE0DD",
"/  c #E2E1D3",
"(  c #E9E8D6",
")  c #E0E2DF",
"_  c #F1EEDE",
"`  c #DFE1E0",
"'  c #E3E5E2",
"]  c #E6E8E6",
"[  c #E8EAE7",
"{  c #E7E9E8",
"}  c #EBEDEA",
"|  c #EFF1ED",
" . c #F0F2EF",
".. c #EFF1F0",
"X. c #F3F5F2",
"o. c #F6F8F5",
"O. c #F9FBF6",
"+. c #FCFDFB",
/* pixels */
"} } [ ] [ } } X.X.X.o.O.} } X.} X.[ W E S S E ~ ~ ~ ^ Y } } X.} [ | [ | o.[ ) [ [ ) ^ W ^ [ | } ' ^ ",
"} X.| X.} } } | X.X.X.o.} } [ X.} ] W J E J U ~ ^ E ' }  .}  .[ [ | | ' W ^ ' ^ U J L E ' } | [ ^ ^ ",
"] | | O.} } } } } } [ ] ] [ ] X.} ~ E N ~ E ' }  .| } ~  . .[ [ [ | | ' ^ o.o.^ U E ^ W ] [ [ | | ] ",
"[ } [ } ) [ } [ [ } [ ' } } [ } } ] ~ J N P ' W Y ~ X. . .X.[ [ ' [ [ ' ' | ' ^ ^ | | ^ X.| | [ [ ] ",
"] [ | } E ' } } } o.X.] ] ' ] [ [ [ ~ J J L ' ' ~ ! ] ] |  .X.] ' [ ' | | ' ) [ [ ^ ` | o.} ^ ^ ' ' ",
"} } } } } } | } [ [ [ [  . .} } [  .[ N I V V ! ' { } { } X.} [ ^ ^ [ ^ U ^ E Q ^ [ ^ [ [ | | | | } ",
" .| | | X.X.X.X.}  .}  . .X.} X.} } [ B z M C ! ' ` { X.X.+. .} | [ ^ U ' Q ' ^ ' | [ o.[ o.X.' [ | ",
"X.X. .X. .X.O.X.X.} X.X. . .}  .}  .} B j J ! } o.` E ! O.} X. .[ [ ^ ^ Q ^ | ' [ [ | | +.[ [ | | [ ",
"| X.X.| ' ' ] ' ' ^ ) ' X.X.}  .[ | [ N k J P E ! ! ' { } ! [ ' ^ | ^ U L Q } ' ^ ' | ' | [ ' | | ' ",
"} } } } X.X.o.X. .|  .X.} X.[ } [ } [ M u z H I 8 ; _ } ! ] ' E ' X.[ | Q ^ X.| W ' ' ' } [ | | | [ ",
"} } } | [ } } } ] ] ] [ } } [ [ ] } ] M i V ! w 2 - : J E  .' ' o.] ' | ' | } [ ^ ^ E | X.| | ^ | o.",
"| | | | } } | } [ ] [ [ [ [ ' [ ' [ ' c d J ' 2 2 - - L ' } [ [ E J W ^ ^ [ ' [ | ^ W | } O.Q v ^ o.",
"X. .X.| [ } } } [ ] [ [ [ [ ' ] ) ' ) c # C / 2 2 - - , X.] [ ~ U ^ [ Q Y U | X.| | } | U ^ ) ' O.| ",
"| | | X.X.E E X.] '  .} ] ' ' [ [ ' [ d O M 7 2 - & - - X.O. .~ | ' [ | U W ' } ^ ) | ' } [ ^ ^ ' ' ",
"} } | } X.' ~ } } X.} } [ } } } } } X.d u W 2 < - & * - X.|  .~ J K Y U v | } U [ | W Q ' } | ' ^ } ",
" .|  .| X.X.o.| } } ' } [ | | }  .| X.f s W 2 - - & & -  .| [ ! L U ^ E b E Q Q | [ ~ ) | ] } | | | ",
"X.X.o.X.| O.o. .X.o.] X.| } } X. .}  .j d L 2 - - & & - ] ' [ ' ] ^ o.o.^ U ) O.X.X.O...} o.| ^ E W ",
"o.o.X.X.X.O. . .} [ ] [ X...| o.X. .X.k % A 2 - - & & - D W +.o.Q E O.| ..O.| ^ ^ } ' W ` ] ' ` } o.",
"|  . .| | X.| o.[ [ X.O.[ | } } }  .X.f i 0 < - - & & = 1 ~ } } ` | X.} U ~ H Z ' } ^ o...} ' ~ L L ",
"| } } | } [ ~ ^ ~ ~ ~ ' ] [ ] { [ ]  .p M 4 > - - & & * - o.} ' ....` ` +.' U ^ o.[ ^ | ! ! ~ ! ^ [ ",
"| | | | | | ' ^ ! ' ^ } { { ] } } ] } d j 2 - - < ; & & - ] X.] ` ~ ` ` +.X.] ` | | { ~ } ....} | } ",
"X.X.[ ..X.X.' )  . .|  .+.{ } ..~ } { i P 2 - - 2 - & & - } E W R R ` { { ! ! ` } ` ` } } ' ` ' | | ",
"` ! ` ' ( }  . .} ]  .o...{ } ] Y [ [ y J 2 - - 2 - & & ; X.X.} ` ~ ` { ` ` } ..] ` ` ..} { { ....] ",
"m M V V N B N S L U Y Y R R E W J W R $ V 2 - - 2 - & & - ` ` E E { } ..{ ` ` ` ] } } ` ....{ ! E ] ",
"@ % # # # t h j c c g c j i d c j d s O c 2 - - 2 - & & - ` P M Z U E E E E R I R ! E R H J N f h C ",
"X O   @ o . e t u j y t t $ @ $ # @ $ o N 2 - - 2 - & & - ! V z k c c h h x c c z h h z h h h j z h ",
"# u $ r u r g d g z u u M c g j h j n h M 2 - - 2 - & & - M z c v h l k x h a h h s u u u d h h f s ",
"# y t x z z n z g a r r c c k n m x M c d 2 - - 2 - & & - j c N V M M M H V M M m c m m h m m z f z ",
"# d y t z g z z s d x z c f i b M d j M j 2 - - 2 - & & - c c z v N v c B N N B M v x c c c m M M m ",
"u k f u j j j j j f d d i f d f k c k c C 2 - - < > & & - N B k y f k v c v N N B M M M n n n n N m ",
"b N S N l c c v b M b b v M S J J P E Q ` 4 > - - & & * : } +.' Z v v j b v c l l c v M m x z n m g ",
") ~ } | ~ ~ ' ] [ } } } [  .X.X.O.X.O.+.X.0 < - - & & = 3 ] } O.X.| Q L Z Z B N Z Z Z B Z V H N H R ",
"' L Y  .} } X.X.X.O.o.o.X.O.X.[  .[ ' } X.( 2 - - & & - G o.| o.X.] X.X.X. .X.o.o.X.| ] o.] X. .X.} ",
" .U Y o.} } }  .} } [ [  . .X.X. . .X.} } ) 2 - - & & - o.+.o.} } X.X.X.o.o.o.X.X.| | X. . .O.o.| o.",
"~ I Q ' Q Q ~ Q Q W E E ~ ' ] ] [ [ } X.' Q 2 - - & & - } } Q } | { | } [ [ [ ] ' ' ] } o. .^ ] ' ] ",
"| +.+.+.+.+.+.+.+.+.+.+...+.O.X.O.O.X.+.O.+.2 2 - & = - +.o.o.o.o.o.X.| |  . . .| X.| X. .} /  . . .",
"^ | }  .) ' [ } }  . . .X.X.X. . .} } [ ' [ 7 2 - & - > | } X.o.+.+.O.| o.o.X.o.+.+.O.O.o.o.O.O.| | ",
"J J K L I I I I I I I I P I I P Y Y Y W Q ~ T 2 2 - - F ' ' ] ] ' ` ` Q ] ] ] ) ` ' ] ] [ _ ' ) ' { ",
"Q W Q ) ' ' ' ' ' ' ' ' Q Q E Y E Q ~ ) ' ' ) 2 2 - - X.| } ' Q Q ~ Q E Q Q ^ ^ ~ ~ ~ ~ W E W Q ^ ^ ",
" .) ^ ' ^ ^ ^ ~ ~ ) ` ~ ~ ) ~ ~ ) ^ Q ) [ [ ) 0 2 - 1 ` E Q ` Q Q Q ) ` W W Q Q ~ ~ W E W W W ^ ` ` ",
") ~ ) ) ) ) ) ) ) ) ) ) ) ) ) ~ ^ ^ ~ )  .E ! ~ 5 , Q Q Q ~ ~ Q Q ~ Q Y ~ ~ ~ ^ ~ ~ ~ ~ ' ' ` ` ` ' ",
"~ Q ^ ) ] ] ] ] ] ] ] ] ] ] ) ) ' ) ) [ Q ) } ] [ [ ~ ] ~ ) ) ^ ^ ' ) ^ ' ' ) ) ^ ' ' ' ' ~ ! ! ~ ~ ",
") ) ' ] ~ ~ ~ ~ ~ ~ ~ ~ ) ) ) ) ) ) ) ' +.O. .O. .) ) ' [ } } } ' ) ) ' ' ' ) ) ^ ' ' ' ^ ~ E E W ~ ",
") ) ) [ ~ ) ~ ) ~ ) ~ ) ^ ) Q W ~ ^ ) [ ~ ~ } X.] ) ' } X.' ) ' ' ) ) ] ' ' ) ' ' ` ' ' ` ^ ! ! ~ ' ",
"' Q W ) ~ Q ~ Q Q ~ Q ~ ~ ) ) ) ' ' ] [ U J b J E ~ } X.Q E Q ' [ ) ^ [ ^ ) ' ' ' ' ` ^ ^ ~ E E W Q ",
"~ W T W ~ ) W [ +. .) ) ) ) ' [ [ ] ' [ [ ~ J L Y ~ ' L ) ] ' ' ) ' ' ) ^ ] ' ) ^ ^ ' ~ ~ E R P U ) ",
"^ Q ! ] [ Q )  .Y J } ) ) ) ) ~ ~ ' ) ) ) E ~ Y E ' ) ) ' ~ ~ ^ ) ) ) ^ ) ^ ' ' ) ' ^ ' ` ! R E ^ ) ",
"~ W W ' ) ^ [  .S N ' ~ ) ~ ~ ) ) ' ' [ ) ) ' ~ Q ^ ) ) ' ~ Q ~ ' ) ^ ^ ' ~ ^ ' ' ' ` } ' { ^ W Q ^ ",
"~ Q Q ~ ) [ ' ] ' E ~ ) ' ' ' } | } [ } }  .[ } [ ' | ' [ ' ) ] [ ' ' ' [ ' ' [ [ ' | [ | } ) ) ' [ ",
"} [ } } } } ' ' } } ' } }  . .} [ [ [ ' } [ ] } |  .} } [ }  .} [ } [ | |  .| | } [ | [ [ ) ~ Y W ' "
};
