/* XPM */
static char *result[] = {
/* columns rows colors chars-per-pixel */
"50 50 130 2 ",
"   c #5D5F5E",
".  c #5E605F",
"X  c #646665",
"o  c #6C6E6D",
"O  c #727473",
"+  c #787A79",
"@  c #954613",
"#  c #9A4916",
"$  c #9D4D1B",
"%  c #A54F17",
"&  c #A65017",
"*  c #A75018",
"=  c #AA5219",
"-  c #B6591E",
";  c #9B5F39",
":  c #A35220",
">  c #A85827",
",  c #BA5E24",
"<  c #B15D2B",
"1  c #9D623C",
"2  c #A4653D",
"3  c #BD6B3B",
"4  c #C6601F",
"5  c #C66021",
"6  c #C96426",
"7  c #C1652D",
"8  c #CD6B2F",
"9  c #D56723",
"0  c #D76B29",
"q  c #CB6D37",
"w  c #C86E3A",
"e  c #D96F30",
"r  c #D97031",
"t  c #D3733B",
"y  c #DC773C",
"u  c #DD783D",
"i  c #A26740",
"p  c #A66B44",
"a  c #AA6B42",
"s  c #AA6F48",
"d  c #AD714B",
"f  c #B17147",
"g  c #B4764C",
"h  c #B9794F",
"j  c #B27750",
"k  c #B07853",
"l  c #BC7C52",
"z  c #C47245",
"x  c #CC7443",
"c  c #D87741",
"v  c #D77E4E",
"b  c #D07D51",
"n  c #7E807F",
"m  c #BD8058",
"M  c #C08056",
"N  c #C0835B",
"B  c #D38054",
"V  c #DA8456",
"C  c #DA8459",
"Z  c #E9844E",
"A  c #E38552",
"S  c #E48A5B",
"D  c #E78E60",
"F  c #EA9064",
"G  c #E79268",
"H  c #EB966D",
"J  c #ED9870",
"K  c #838584",
"L  c #858688",
"P  c #8B8D8C",
"I  c #8E908F",
"U  c #939493",
"Y  c #989794",
"T  c #969897",
"R  c #979998",
"E  c #9B9C9D",
"W  c #A09F9C",
"Q  c #9EA09F",
"!  c #A2A29D",
"~  c #9E9FA2",
"^  c #9FA1A0",
"/  c #A2A4A3",
"(  c #AAA9A7",
")  c #A5A6A9",
"_  c #A7A9AA",
"`  c #AAACAB",
"'  c #AFB1AE",
"]  c #B1B2AE",
"[  c #ADAEB1",
"{  c #AFB1B1",
"}  c #B3B5B4",
"|  c #B6B8B6",
" . c #BABBB7",
".. c #BBBDBB",
"X. c #BEC0BD",
"o. c #C1C2BD",
"O. c #BFC1C0",
"+. c #C3C5C4",
"@. c #C7C9C6",
"#. c #CBCAC6",
"$. c #CBCDCA",
"%. c #D0CFCC",
"&. c #CED0CD",
"*. c #D1D2CF",
"=. c #CFD1D0",
"-. c #D4D5D3",
";. c #D8D7D3",
":. c #D6D8D6",
">. c #D9DAD6",
",. c #D7D9D8",
"<. c #DCDDDA",
"1. c #E0DFDB",
"2. c #DEE0DD",
"3. c #E1E2DE",
"4. c #DFE1E0",
"5. c #E3E5E2",
"6. c #E8E7E3",
"7. c #E6E8E5",
"8. c #E9EAE6",
"9. c #E7E9E8",
"0. c #EBEDEA",
"q. c #F0EFEA",
"w. c #EFF1ED",
"e. c #F0F2EE",
"r. c #EFF1F0",
"t. c #F3F5F2",
"y. c #F8F7F2",
"u. c #F7F9F4",
"i. c #FAFBF6",
"p. c #FCFDFB",
/* pixels */
"0.0.9.7.9.8.0.e.e.N = = = = = = = = = = = = = = = = = = = = = = * = * = = = * # j 3.<.>.5.7.0.0.5.2.",
"0.t.t.e.w.0.w.w.q.M = = = = = = = = = = = = = = = = = = = = = = = * = * = * * # a o.@.;.5.0.0.0.5.2.",
"7.w.w.u.0.w.0.0.8.h = = = = = = = = = = = = = = = = = = = = = = = - > = = = * # a *.<.,.7.0.w.0.9.9.",
"9.0.9.0.2.7.0.9.3.h & # 3 V V V C V V V C C C V V V C C C V V V C C V v y 7 * # d 9.0.5.t.e.0.8.9.7.",
"7.0.w.0.-.3.0.0.0.m & @ z J J H H H H H H H H H H H H H H H J H H H J F Z 8 & # d >.3.0.u.0.3.2.3.7.",
"0.0.0.0.0.0.w.0.6.h & @ z H H H H H H H H H H H H H H H H H H H H H H F Z q & # f 3.3.9.9.e.0.0.w.0.",
"w.w.w.w.t.t.t.t.q.h & # z J H H H H H H H H H H H H H H H H H H H H H F Z q % # d 8.0.t.9.t.t.9.7.w.",
"w.t.t.w.t.t.u.t.q.h $ @ z H H H D u u u u u u u u u u u u u u t w S J F Z q % % d 5.e.e.i.0.0.0.w.8.",
"r.w.w.w.5.5.7.5.2.h % @ z J H J A 9 9 9 9 9 9 9 9 9 9 9 9 9 9 4 - v J F Z t * # d 3.w.4.0.7.5.0.e.5.",
"w.w.w.w.t.t.u.t.0.l % # z H H H A 9 9 9 9 9 9 9 9 9 9 9 9 9 9 4 - v J S Z q * # p 3.5.5.0.0.r.r.w.8.",
"0.0.0.0.9.0.0.0.5.h % @ z H H H A 9 9 9 9 9 9 9 9 9 9 9 9 9 9 4 - v J F Z q * # d ;.:.w.t.w.w.<.w.u.",
"w.w.w.w.9.0.w.0.3.h % # z J H H A 9 9 9 9 9 9 9 9 9 9 9 9 9 9 4 - v J F Z q * # d ;.>.w.0.u.<.' 2.t.",
"w.r.w.r.0.0.0.0.6.h % @ z H J J A 9 9 9 9 9 9 9 9 9 9 9 9 9 9 4 - B H F Z q & # j 6.w.e.=.<.5.5.i.w.",
"w.w.w.w.w.-.-.t.3.h & @ z H J H A 9 9 9 9 9 9 9 9 9 9 9 9 9 9 4 - v H F Z q & # s 2.0.5.8.0.4.2.5.5.",
"w.w.w.w.t.2.2.w.q.m & # z H H J A 9 9 9 9 9 9 9 9 9 9 9 9 9 9 5 - v H F Z q & # d 8.;.>.7.8.0.5.4.0.",
"w.w.w.w.t.u.u.w.6.h & @ z H H H A 9 9 9 9 9 9 9 9 9 9 9 9 9 9 5 - B J F Z q & # g 3.<.5.w.7.0.w.r.w.",
"t.u.t.t.w.i.t.w.w.l & @ z H H H A 9 9 9 9 9 9 9 9 9 9 9 9 9 9 6 - v J F Z q * # g q.u.t.9.u.r.<.-.:.",
"u.t.u.r.w.p.e.t.8.l & @ z J H H A 9 9 9 9 9 9 9 9 9 9 9 9 9 9 5 - v J F Z q * # d 5.5.;.4.9.5.5.0.t.",
"w.w.w.w.w.t.w.u.7.h & @ z H H J A 9 9 9 9 9 9 9 9 9 9 9 9 9 9 5 - v H F Z q * # s 6.5.t.t.8.9.,.$.$.",
"w.w.w.w.w.8.2.2.;.h & @ z J H H A 9 9 9 9 9 9 9 9 9 9 9 9 9 9 5 - v J F Z q * # g 5.<.e.,.>.<.,.2.6.",
"w.r.w.w.w.q.5.2.;.h & # z H H H A 9 9 9 9 9 9 9 9 9 9 9 9 9 9 5 - v H F Z q = # d q.9.,.0.r.r.9.w.0.",
"r.r.9.r.t.u.3.3.0.h & @ z H H J A 9 9 9 9 9 9 9 9 9 9 9 9 9 9 5 - v J F Z q % # d 1.4.0.0.5.4.9.0.w.",
"4.4.4.5.3.0.w.e.6.h & @ z J H J A 9 9 9 9 9 9 9 9 9 9 9 9 9 9 5 - v H F Z q % # d <.5.r.0.9.9.r.w.9.",
"{ { | | |  .| X.#.g & @ z H H J A 0 0 0 0 0 0 0 0 0 0 0 0 0 0 6 , V H F Z q = # d 6.8.5.r.t.9.-.-.9.",
"O n + + + P ^ ^ ( 2 & # z H H H H D D D D D D D D D D D D D D D D H G F Z q % # p &.-.=.O.O.| ^ Q X.",
"X o . O X . K I Y 2 & # z H H H H H J H H J H J J J H H H H H C C z < b Z q & # 1 ^ ^ ^ ^ ^ ^ ) ^ ^ ",
"+ U + K T L ^ ~ E 2 & # z H H H H H H H H H H H J H H H H H C : # @ @ < Z q % # 1 T T T T E ^ ^ ^ R ",
"O I I _ _ ^ [ ^ E 2 & @ z H H H H H H H H H H H H H H H H H G B v 3 > x Z q % # 1 ( ` } ^ { { ^ ^ _ ",
"O Q I P ) ^ ) ) R 2 & # z H H H H H G F F F H G F G G G H H G G H H G F Z q & # 1 ` ` ` _ [ { | } { ",
"U ( Q U ^ ^ ) ^ ! 2 & # z J H H A r r r r r r r r r r e r r r 8 , V H F Z q & # 1 ] ] } [ [ _ { } { ",
"' | X.| _ ' [ { ' 2 & # z H H H A 9 9 9 9 9 9 9 9 9 9 9 9 9 9 4 - A H F Z q & # 1 ( ] | [ [ ^ [ { ^ ",
"2.2.8.w.2.4.4.5.6.h & # z H H H A 9 9 9 9 9 9 9 9 9 9 9 9 9 9 5 - B H F Z q & # 2  .X. .O...O.| O.=.",
"7.$.&.w.0.0.r.t.e.l % @ z J H H A 9 9 9 9 9 9 9 9 9 9 9 9 9 9 5 - B H F Z q % # g q.w.9.u.7.t.e.t.w.",
"w.&.&.u.0.0.w.w.8.l % # z H H H A 9 9 9 9 9 9 9 9 9 9 9 9 9 9 5 - B H F Z q % # g 8.e.t.e.e.i.u.e.t.",
"<.$.2.2.<.,.>.>.;.g % @ z J H J A 9 9 9 9 9 9 9 9 9 9 9 9 9 9 5 - v J F Z q = # d 3.6.0.y.e.2.8.5.6.",
"w.p.p.p.p.p.p.p.i.M % # z H H H A 9 9 9 9 9 9 9 9 9 9 9 9 9 9 5 - A H F Z q = # d 0.e.e.e.8.2.e.e.t.",
"2.w.w.w.2.5.5.0.9.l $ # z J H H A 9 9 9 9 9 9 9 9 9 9 9 9 9 9 5 - B J F Z q & # j u.i.u.y.u.i.i.w.w.",
"+.+.@.$.&.&.&.&.#.g % # z H H J A 9 9 9 9 9 9 9 9 9 9 9 9 9 9 5 - v H F Z q = # d 2.9.9.8.6.3.3.5.5.",
",.:.,.3.2.5.5.2.3.h % @ z H H H A 9 9 9 9 9 9 9 9 9 9 9 9 9 9 5 - v H F Z q = # s ;.2.>.:.-.,.,.4.4.",
"w.2.2.5.2.2.2.2.>.g & @ z J H H A 9 9 9 9 9 9 9 9 0 9 9 9 9 9 4 - v H D Z q & # s *.:.-.:.;.,.2.4.4.",
"5.<.<.5.2.2.5.4.1.h % # z H H H A 9 9 9 9 9 9 9 9 9 9 9 9 9 9 4 - v J F Z q = # s >.2.>.7.4.2.5.5.5.",
">.,.2.4.7.7.7.7.3.h % @ z H H H A 9 9 9 9 9 9 9 9 9 9 9 9 9 9 4 - v J F Z q & # s 3.3.7.5.2.,.:.,.<.",
"5.5.5.5.2.<.<.<.>.h % # z H H H A 9 9 9 9 9 9 9 9 9 9 9 9 9 9 4 - v J F Z q % # s >.3.8.4.<.-.-.,.2.",
"2.2.5.0.<.2.<.2.1.g % @ z H H H A 9 9 9 9 9 9 9 9 9 9 9 9 9 9 4 - v J S Z q = # s 3.3.3.4.<.,.,.<.4.",
"5.,.:.2.>.>.>.,.;.j & @ z H H H Z 9 9 9 9 9 9 9 9 9 9 9 9 9 9 4 - v J F Z q % # d 2.2.2.4.,.-.-.,.,.",
"<.:.-.:.<.3.,.0.i.l & # z H H J S r r e r r r r r r r r e r e 8 7 V J F Z q & # d >.5.<.<.-.=.@.&.2.",
"2.,.2.3.9.>.5.e.$.f & @ z H H H H G H F F G G F G G F G G G G G F H H F Z q = # s 2.2.5.4.:.=.-.2.5.",
"2.-.2.2.5.<.6.t.o.a & # z H H H H H H H H H H H H H H H H H H H H H H F Z q & # s 3.5.9.5.0.2.,.:.<.",
"2.;.:.2.2.9.2.8.2.g & @ z H H H H H H H H H H H H H H H H H H H H H H F Z q % # d 3.0.8.w.0.4.5.5.7.",
"w.8.8.0.0.0.9.4.0.m % @ z J H H H H H H H H H H H H H H H H H H H H H F Z q * # k 6.q.9.8.5.>.-.:.5."
};
