/* XPM */
static char *result[] = {
/* columns rows colors chars-per-pixel */
"50 50 150 2 ",
"   c #ECEEEB",
".  c #EAECE9",
"X  c #E9EBE8",
"o  c #E6E8E5",
"O  c #E8EAE7",
"+  c #EBEDEA",
"@  c #F0F2EF",
"#  c #F3F5F2",
"$  c #F4F6F3",
"%  c #F6F8F5",
"&  c #F8FAF7",
"*  c #EEF0ED",
"=  c #EFF1EE",
"-  c #D7D9D6",
";  c #1D1715",
":  c #F7F9F6",
">  c #E1E3E0",
",  c #E3E5E2",
"<  c #DADCD9",
"1  c #E0E2DF",
"2  c #E7E9E6",
"3  c #E4E6E3",
"4  c #F1F3F0",
"5  c #EDEFEC",
"6  c #F2F4F1",
"7  c #F5F7F4",
"8  c #D6D8D5",
"9  c #DFE1DE",
"0  c #E5E7E4",
"q  c #DDDFDC",
"w  c #CCCECB",
"e  c #C3C5C2",
"r  c #C9CBC8",
"t  c #D4D6D3",
"y  c #DEE0DD",
"u  c #CFD1CE",
"i  c #DCDEDB",
"p  c #D8DAD7",
"a  c #526573",
"s  c #D3D5D2",
"d  c #E2E4E1",
"f  c #D1D3D0",
"g  c #7CBC57",
"h  c #609744",
"j  c #21282E",
"k  c #6A8293",
"l  c #AEB0AD",
"z  c #EE8314",
"x  c #171210",
"c  c #4B7635",
"v  c #D0D2CF",
"b  c #DBDDDA",
"n  c #D2D4D1",
"m  c #D9DBD8",
"M  c #1E2F15",
"N  c #D5D7D4",
"B  c #CACCC9",
"V  c #404E59",
"C  c #F2F4F3",
"Z  c #F1F3F2",
"A  c #E9EBEA",
"S  c #EEF0EF",
"D  c #E2E4E3",
"F  c #E5E7E6",
"G  c #EBEDEC",
"H  c #EDEFEE",
"J  c #1A1F24",
"K  c #CBCDCA",
"L  c #170E07",
"P  c #3A2211",
"I  c #DDE0D9",
"U  c #E8EBE4",
"Y  c #E4E7E0",
"T  c #E6E9E2",
"R  c #F9FBF8",
"E  c #FEFFFD",
"W  c #FDFFFC",
"Q  c #DCDFD8",
"!  c #F0F3EC",
"~  c #F2F5EE",
"^  c #FCFFF6",
"/  c #FAFDF4",
"(  c #EFF2E9",
")  c #F0F3EA",
"_  c #C5C7C4",
"`  c #C4C6C3",
"'  c #C7C9C6",
"]  c #E4E6E5",
"[  c #E6E8E7",
"{  c #D5D7D6",
"}  c #D3D5D4",
"|  c #D4D6D5",
" . c #D7D9D8",
".. c #DBDDDC",
"X. c #DDDFDE",
"o. c #D6D8D7",
"O. c #DFE1E0",
"+. c #E0E2E1",
"@. c #E3E5E4",
"#. c #E1E3E2",
"$. c #8A8B89",
"%. c #828381",
"&. c #868886",
"*. c #8E8F8E",
"=. c #8B8C8A",
"-. c #8B8C8B",
";. c #848583",
":. c #868785",
">. c #878886",
",. c #D8DAD9",
"<. c #888987",
"1. c #989998",
"2. c #959795",
"3. c #90918F",
"4. c #939492",
"5. c #848684",
"6. c #898A88",
"7. c #8C8E8C",
"8. c #8E8F8D",
"9. c #DADCDB",
"0. c #D2D4D3",
"q. c #838482",
"w. c #919291",
"e. c #8D8E8C",
"r. c #DCDEDD",
"t. c #858684",
"y. c #898B89",
"u. c #8C8D8B",
"i. c #7C7D7C",
"p. c #757674",
"a. c #6A6B69",
"s. c #737473",
"d. c #7F807F",
"f. c #818381",
"g. c #7F807E",
"h. c #848584",
"j. c #818382",
"k. c #818280",
"l. c #8F918F",
"z. c #888988",
"x. c #767776",
"c. c #787977",
"v. c #7D7F7D",
"b. c #797A79",
"n. c #838483",
"m. c #CED0CD",
"M. c #7B7C7A",
"N. c #6D6E6D",
"B. c #8F908E",
"V. c #919290",
/* pixels */
"  . X o O X + @ # $ % & * . = = = X - ; ; ; ; ; ; ; ; ; ; ; ; + X * . + : X > o . , < - 1 2   . 3 1 ",
"  4 4 4 5   5 = 4 6 # 7 . 5 + 6 @ , 8 ; ; ; ; ; ; ; ; ; ; ; ; O X = X 2 8 9 0 q w e r t 0 . 5 X > y ",
"o * * & +     . . . . O 3 X 3 *   y t ; ; ; ; ; ; ; ; ; ; ; ; 2 X .   , q # % 9 u 8 i p 2 .     X 2 ",
"X   O . 9 2 + X ; ; ; ;     O ; ; ; ; a a a a a a a a a a a a ; ; ; ; 0 o   ; ; ; ; 5 > $ @ + X O 2 ",
"0 X = . s > . + ; ; ; ; o d 3 ; ; ; ; a a a a a a a a a a a a ; ; ; ; X 5 3 ; ; ; ; d + % + 1 y d o ",
"        + 5 *   ; ; ; ; @ @ + ; ; ; ; a a a a a a a a a a a a ; ; ; ; 1 f q ; ; ; ; 9 2 O = + 5 + + ",
"= = = = ; ; ; ; g g g g ; ; ; a a a a a a a a a a a a a a a a a a a a ; ; ; g g g g ; ; ; ; $ 2 O = ",
"4 4 4 4 ; ; ; ; g g g g ; ; ; a a a a a a a a a a a a a a a a a a a a ; ; ; g g g g ; ; ; ; . +   X ",
"@ @ @ @ ; ; ; ; g g g g ; ; ; a a a a a a a a a a a a a a a a a a a a ; ; ; g g g g ; ; ; ; , + 4 0 ",
"5 5 5 5 ; ; ; ; h h h h j j j k k k k k k k k a a a a k k k k k k k k j j j h h h h ; ; ; ; 4 @ * X ",
"        ; ; ; ; h h h h j j j k k k k k k k k a a a a k k k k k k k k j j j h h h h ; ; ; ; = q * % ",
"* * * * ; ; ; ; h h h h j j j k k k k k k k k a a a a k k k k k k k k j j j h h h h ; ; ; ; < l y # ",
"@ @ @ @ X + 5 + ; ; ; ; j j j z z z z x x x x c c c c x x x x z z z z j j j ; ; ; ;   @ v b , > & 5 ",
"= = = = 4 s n 6 ; ; ; ; j j j z z z z x x x x c c c c x x x x z z z z j j j ; ; ; ;   3 . X > y 0 0 ",
"5 5 5 5 $ > q * ; ; ; ; j j j z z z z x x x x c c c c x x x x z z z z j j j ; ; ; ; 8 m 0 .   3 9 + ",
"= = = = 4 7 7 @ ; ; ; ; j j j z z z z x x x x c c c c x x x x z z z z j j j ; ; ; ; < d * 2 . = = 5 ",
"$ $ $ $ ; ; ; ; k k k k M M M h h h h h h h h g g g g h h h h h h h h M M M k k k k ; ; ; ; @ q s N ",
"$ $ $ $ ; ; ; ; k k k k M M M h h h h h h h h g g g g h h h h h h h h M M M k k k k ; ; ; ; , >   7 ",
"= = = = ; ; ; ; k k k k M M M h h h h h h h h g g g g h h h h h h h h M M M k k k k ; ; ; ; 0 < B r ",
"5 5 5 5 ; ; ; ; k k k k V V V M M M M h h h h c c c c h h h h M M M M V V V k k k k ; ; ; ; b m q O ",
"= = = = ; ; ; ; k k k k V V V M M M M h h h h c c c c h h h h M M M M V V V k k k k ; ; ; ;   X 5   ",
"C Z A S ; ; ; ; k k k k V V V M M M M h h h h c c c c h h h h M M M M V V V k k k k ; ; ; ; D F G H ",
"; ; ; ; a a a a V V V V a a a V V V V M M M M M M M M M M M M V V V V a a a V V V V a a a a ; ; ; ; ",
"; ; ; ; a a a a V V V V a a a V V V V M M M M M M M M M M M M V V V V a a a V V V V a a a a ; ; ; ; ",
"; ; ; ; a a a a V V V V a a a V V V V M M M M M M M M M M M M V V V V a a a V V V V a a a a ; ; ; ; ",
"; ; ; ; a a a a V V V V j j j a a a a V V V V V V V V V V V V a a a a j j j V V V V a a a a ; ; ; ; ",
"; ; ; ; a a a a V V V V j j j a a a a V V V V V V V V V V V V a a a a j j j V V V V a a a a ; ; ; ; ",
"; ; ; ; a a a a V V V V j j j a a a a V V V V V V V V V V V V a a a a j j j V V V V a a a a ; ; ; ; ",
"; ; ; ; h h h h c c c c j j j a a a a k k k k k k k k k k k k a a a a j j j c c c c h h h h ; ; ; ; ",
"; ; ; ; h h h h c c c c j j j a a a a k k k k k k k k k k k k a a a a j j j c c c c h h h h ; ; ; ; ",
"; ; ; ; h h h h c c c c j j j a a a a k k k k k k k k k k k k a a a a j j j c c c c h h h h ; ; ; ; ",
"; ; ; ; h h h h J J J J V V V a a a a V V V V V V V V a a a a a a a a V V V J J J J h h h h ; ; ; ; ",
"; ; ; ; h h h h J J J J V V V a a a a V V V V V V V V a a a a a a a a V V V J J J J h h h h ; ; ; ; ",
"; ; ; ; h h h h J J J J V V V a a a a V V V V V V V V a a a a a a a a V V V J J J J h h h h ; ; ; ; ",
"b K p , ; ; ; ; L L L L P P P j j j j J J J J ; ; ; ; J J J J j j j j P P P L L L L ; ; ; ; I U Y T ",
"* R E W ; ; ; ; L L L L P P P j j j j J J J J ; ; ; ; J J J J j j j j P P P L L L L ; ; ; ; Q ! ~ ~ ",
"y *   = ; ; ; ; L L L L P P P j j j j J J J J ; ; ; ; J J J J j j j j P P P L L L L ; ; ; ; ^ / ( ) ",
"_ ` ' r w w w w ; ; ; ; P P P P P P P ; ; ; ; 9 y q 2 ; ; ; ; P P P P P P P ; ; ; ; o 2 A F D D ] [ ",
"m N p 1 , , , , ; ; ; ; P P P P P P P ; ; ; ; b y 1 d ; ; ; ; P P P P P P P ; ; ; ; b b { } |  ...X.",
"* > y 3 q q q q ; ; ; ; P P P P P P P ; ; ; ; m m q 0 ; ; ; ; P P P P P P P ; ; ; ; 8 t o.o. ...O.+.",
"d b b , 1 1 1 1 ; ; ; ; P P P P P P P ; ; ; ; i i 9 8 ; ; ; ; P P P P P P P ; ; ; ; b < @.#.O.+.D @.",
"< m q > o o o o $.$.$.$.; ; ; ; ; ; ; $.%.&.*.=.-.-.;.$.;.:.:.; ; ; ; ; ; ; >.&.&.>.d , D X. .o.,...",
"d d , 3 i i i i ;.;.;.;.; ; ; ; ; ; ; <.1.2.3.4.3.:.5.6.-.7.8.; ; ; ; ; ; ; >.&.&.>.3 0 O.9.| 0.o.X.",
"> 9 , X q q q q 5.5.5.5.; ; ; ; ; ; ; =.q.q.*.w.$.>.6.e.w.$.:.; ; ; ; ; ; ; >.>.>.>.d d #.r. . ...+.",
", p 8 q %.%.%.%.%.%.%.%.5.>.:.t.6.y.6.u.i.p.a.s.d.%.7.4.f.g.%.y.$.t.t.=.:.&.<.6.6.<.&.:.h.j.| | o.,.",
"< 8 N - ;.&.k.u.1.l.>.z.<.>.z.-.u.$.y.$.-.q.x.c.v.;.<.b.>.y.6.>.>.y.y.>.&.=.<.&.:.:.<.n.n.d.f ' m.y ",
"9 p b , =.f.>.3.M.x.7.&.:.<.&.n.n.>.<.:.<.d.n.v.v.6.&.&.<.5.n.5.>.>.:.;.>.5.<.&.&.<.t.<.&.k.m.s y , ",
"i 8 m > , i o 4 p.N.6.5.5.;.;.t.&.<.y.-.&.:.6.5.k.5.&.>.y.n.k.t.z.>.5.5.<.n.&.z.6.6.> X 3 + y 8 - y ",
"b p p b 1 O > 2 >.g.5.>.z.>.y.e.*.7.7.*.e.3.=.8.7.6.*.6.-.z.>.y.-.$.6.6.$.$.z.u.7.y.X X *   > > 3 0 ",
"  X X     + , , *.7.6.u.e.3.3.e.u.7.=.>.u.=.=.7.l.l.8.e.=.8.B.7.-.u.e.e.8.V.8.8.e.7.* O . 1 m f 8 , "
};
