/* XPM */
static char *result[] = {
/* columns rows colors chars-per-pixel */
"50 50 155 2 ",
"   c #ECEEEB",
".  c #EAECE9",
"X  c #E9EBE8",
"o  c #E6E8E5",
"O  c #E8EAE7",
"+  c #EBEDEA",
"@  c #F0F2EF",
"#  c #F3F5F2",
"$  c #F4F6F3",
"%  c #F6F8F5",
"&  c #F8FAF7",
"*  c #0C3D25",
"=  c #EFF1EE",
"-  c #003319",
";  c #C1C3C0",
":  c #D5D7D4",
">  c #DCDEDB",
",  c #DADCD9",
"<  c #DEE0DD",
"1  c #D0D2CF",
"2  c #EDEFEC",
"3  c #F7F9F6",
"4  c #E1E3E0",
"5  c #E3E5E2",
"6  c #D7D9D6",
"7  c #E0E2DF",
"8  c #E7E9E6",
"9  c #E4E6E3",
"0  c #F1F3F0",
"q  c #F2F4F1",
"w  c #F5F7F4",
"e  c #C2C4C1",
"r  c #CDCFCC",
"t  c #DDDFDC",
"y  c #EEF0ED",
"u  c #D6D8D5",
"i  c #DFE1DE",
"p  c #E5E7E4",
"a  c #CCCECB",
"s  c #C3C5C2",
"d  c #C9CBC8",
"f  c #D4D6D3",
"g  c #CFD1CE",
"h  c #D8DAD7",
"j  c #009146",
"k  c #D3D5D2",
"l  c #E2E4E1",
"z  c #00803E",
"x  c #FBFDFA",
"c  c #AEB0AD",
"v  c #007137",
"b  c #CACCC9",
"n  c #D9DBD8",
"m  c #F2F4F3",
"M  c #F1F3F2",
"N  c #E5E7E6",
"B  c #EBEDEC",
"V  c #EDEFEE",
"C  c #DDDFDE",
"Z  c #DBDDDC",
"A  c #EFF1F0",
"S  c #E7E9E8",
"D  c #AFB1B0",
"F  c #B3B5B4",
"G  c #D5D7D6",
"H  c #D4D6D5",
"J  c #717372",
"K  c #7E807F",
"L  c #9B9D9C",
"P  c #9EA09F",
"I  c #BBBDBC",
"U  c #636564",
"Y  c #6C6E6D",
"T  c #A2A4A3",
"R  c #A4A6A5",
"E  c #A1A3A2",
"W  c #787A79",
"Q  c #919392",
"!  c #9C9E9D",
"~  c #979998",
"^  c #A7A9A8",
"/  c #B5B7B6",
"(  c #B4B6B5",
")  c #AEAFB1",
"_  c #B4B5B7",
"`  c #ABACAE",
"'  c #AFB0B2",
"]  c #9B9C9E",
"[  c #DBDDDA",
"{  c #006430",
"}  c #CBCDCA",
"|  c #E8EBE4",
" . c #E4E7E0",
".. c #E6E9E2",
"X. c #F9FBF8",
"o. c #F0F3EC",
"O. c #F2F5EE",
"+. c #FAFDF4",
"@. c #EFF2E9",
"#. c #F0F3EA",
"$. c #C5C7C4",
"%. c #C4C6C3",
"&. c #002D16",
"*. c #E2E4E3",
"=. c #E4E6E5",
"-. c #E6E8E7",
";. c #D7D9D8",
":. c #DFE1E0",
">. c #E0E2E1",
",. c #E3E5E4",
"<. c #848684",
"1. c #878886",
"2. c #8A8B89",
"3. c #56411F",
"4. c #888988",
"5. c #848685",
"6. c #818281",
"7. c #D6D8D7",
"8. c #D8DAD9",
"9. c #898A88",
"0. c #848583",
"q. c #868786",
"w. c #838483",
"e. c #7F8080",
"r. c #D2D4D3",
"t. c #8C8D8B",
"y. c #878888",
"u. c #848584",
"i. c #828381",
"p. c #271E0E",
"a. c #888987",
"s. c #868886",
"d. c #868785",
"f. c #DCDEDD",
"g. c #818280",
"h. c #989998",
"j. c #D1D3D0",
"k. c #C7C9C6",
"l. c #CED0CD",
"z. c #818381",
"x. c #90918F",
"c. c #7B7C7A",
"v. c #858684",
"b. c #6D6E6D",
"n. c #898B89",
"m. c #8B8C8B",
"M. c #7F807E",
"N. c #8D8E8C",
"B. c #8E8F8E",
"V. c #8C8E8C",
"C. c #8B8C8A",
"Z. c #8E8F8D",
"A. c #8F918F",
"S. c #8F908E",
"D. c #919290",
/* pixels */
"  . X o O X + @ # $ % & * * = = = X - - - ; : > > , < 1 + 2 # - - - . + 3 X 4 o . 5 , 6 7 8   . 9 7 ",
"  0 0 0 2   2 = 0 q # w * * + q @ 5 - - - e r > t : 5 + = 2 y - - - X 8 u i p t a s d f p . 2 X 4 < ",
"o y y & +     . . . . O * * 9 y   < - - - f 5   @ y 2 > @ 0 O - - -   5 t # % i g u > h 8 .     X 8 ",
"X   O . i 8 * * * - - - - - - - - - j j j - - - - - - - - - - j j j - - -   O t 7 2 2 4 $ @ + X O 8 ",
"p X = . k 4 * * * - - - - - - - - - j j j - - - - - - - - - - j j j - - - 9 l 8 o 7 l + % + 7 < l o ",
"        + 2 y   X - - - - - - - - - j j j - - - - - - - - - - j j j - - - t f : < O i 8 O = + 2 + + ",
"= = = = 0 - - - - z z z j j j j j j z z z z z z j j j j z z z j j j z z z - - - 9 2 X # O # $ 8 O = ",
"0 0 0 0 0 - - - - z z z j j j j j j z z z z z z j j j j z z z j j j z z z - - - 8 8 = 0 x . . +   X ",
"@ @ @ @ l - - - - z z z j j j j j j z z z z z z j j j j z z z j j j z z z - - - < 5 = 5 * * * + 0 p ",
"2 2 2 2 q - - - - j j j z z z z z z j j j j j j j j j j z z z z z z z z z z z z - - - - * * * @ y X ",
"        X - - - - j j j z z z z z z j j j j j j j j j j z z z z z z z z z z z z - - - - * * * t y % ",
"y y y y X - - - - j j j z z z z z z j j j j j j j j j j z z z z z z z z z z z z - - - - + 3 , c < # ",
"@ @ - - - z z z z z z z z z z j j j j j j j j j z z z z j j j j j j z z z z z z j j j j - - - 4 & 2 ",
"= = - - - z z z z z z z z z z j j j j j j j j j z z z z j j j j j j z z z z z z j j j j - - - < p p ",
"2 2 - - - z z z z z z z z z z j j j j j j j j j z z z z j j j j j j z z z z z z j j j j - - - 9 i + ",
"= = - - - z z z z z z z z z z j j j j j j j j j z z z z j j j j j j z z z z z z j j j j - - - = = 2 ",
"$ $ - - - j j j j z z z j j j v v v j j j v v v z z z z j j j z z z z z z j j j z z z z - - - t k : ",
"$ $ - - - j j j j z z z j j j v v v j j j v v v z z z z j j j z z z z z z j j j z z z z - - - 4   w ",
"= = - - - j j j j z z z j j j v v v j j j v v v z z z z j j j z z z z z z j j j z z z z - - - , b d ",
"2 2 - - - z z z z z z z z z z z z z v v v z z z j j j j v v v z z z j j j j j j z z z z - - - n t O ",
"= = - - - z z z z z z z z z z z z z v v v z z z j j j j v v v z z z j j j j j j z z z z - - - X 2   ",
"m M - - - z z z z z z z z z z z z z v v v z z z j j j j v v v z z z j j j j j j z z z z - - - N B V ",
"C Z - - - j j j j z z z z z z z z z j j j z z z z z z z j j j z z z z z z z z z z z z z z z z A A S ",
"D F - - - j j j j z z z z z z z z z j j j z z z z z z z j j j z z z z z z z z z z z z z z z z G H S ",
"J K - - - j j j j z z z z z z z z z j j j z z z z z z z j j j z z z z z z z z z z z z z z z z L P I ",
"U Y - - - z z z z v v v z z z j j j v v v z z z z z z z z z z v v v z z z j j j z z z z - - - T R E ",
"W Q - - - z z z z v v v z z z j j j v v v z z z z z z z z z z v v v z z z j j j z z z z - - - E ! ~ ",
"* * - - - z z z z v v v z z z j j j v v v z z z z z z z z z z v v v z z z j j j z z z z - - - R P ^ ",
"* * j j j z z z z z z z z z z v v v z z z z z z v v v v z z z z z z v v v j j j z z z z - - - / ( D ",
"* * j j j z z z z z z z z z z v v v z z z z z z v v v v z z z z z z v v v j j j z z z z - - - ) _ ) ",
"* * j j j z z z z z z z z z z v v v z z z z z z v v v v z z z z z z v v v j j j z z z z - - - ` ' ] ",
"l [ - - - z z z z j j j z z z v v v v v v j j j { { { { v v v z z z z z z v v v v v v v v v v * * * ",
"p b - - - z z z z j j j z z z v v v v v v j j j { { { { v v v z z z z z z v v v v v v v v v v * * * ",
"@ } - - - z z z z j j j z z z v v v v v v j j j { { { { v v v z z z z z z v v v v v v v v v v * * * ",
"[ } - - - v v v v v v v v v v { { { z z z v v v v v v v z z z j j j z z z v v v v v v v - - - |  ...",
"y X.- - - v v v v v v v v v v { { { z z z v v v v v v v z z z j j j z z z v v v v v v v - - - o.O.O.",
"< y - - - v v v v v v v v v v { { { z z z v v v v v v v z z z j j j z z z v v v v v v v - - - +.@.#.",
"$.%.- - - { { { { z z z { { { z z z v v v { { { { { { { z z z { { { v v v z z z { { { { &.&.&.*.=.-.",
"n : - - - { { { { z z z { { { z z z v v v { { { { { { { z z z { { { v v v z z z { { { { &.&.&.;.Z C ",
"y 4 - - - { { { { z z z { { { z z z v v v { { { { { { { z z z { { { v v v z z z { { { { &.&.&.Z :.>.",
"l [ - - - { { { { z z z { { { z z z v v v { { { { { { { z z z { { { v v v z z z { { { { &.&.&.>.*.,.",
", n <.1.2.- - - - { { { v v v v v v { { { 3.3.3.3.3.3.3.{ { { { { { { { { { { { - - - - 4.5.6.7.8.Z ",
"l l 4.9.0.- - - - { { { v v v v v v { { { 3.3.3.3.3.3.3.{ { { { { { { { { { { { - - - - q.w.e.r.7.C ",
"4 i 4.t.<.- - - - { { { v v v v v v { { { 3.3.3.3.3.3.3.{ { { { { { { { { { { { - - - - y.u.6.;.Z >.",
"5 h u t n i.i.i.i.- - - - - - - - - - - - p.p.p.p.p.p.p.- - - - - - - - - - - - 9.a.s.d.f.8.H H 7.8.",
", u : 6 > s.g.t.h.- - - - - - - - - - - - p.p.p.p.p.p.p.- - - - - - - - - - - - d.d.a.w.[ f j.k.l.< ",
"i h [ 5 8 z.1.x.c.- - - - - - - - - - - - p.p.p.p.p.p.p.- - - - - - - - - - - - s.a.v.a.7 6 l.k < 5 ",
"> u n 4 5 > o 0 s b.9.<.<.0.0.v.s.a.n.m.s.d.9.<.g.<.s.1.n.w.g.v.4.1.<.<.a.w.s.4.9 9 4 X 9 + < u 6 < ",
"[ h h [ 7 O 4 8 4 M.<.1.4.1.n.N.B.V.V.B.N.x.C.Z.V.9.B.9.m.4.1.n.m.2.9.9.2.2.4.t.. p X X y   4 4 9 p ",
"  X X     + 5 5 2 V.9.t.N.x.x.N.t.V.C.1.t.C.C.V.A.A.Z.N.C.Z.S.V.m.t.N.N.Z.D.Z.Z.+ . y O . 7 n j.u 5 "
};
