/* XPM */
static char *result[] = {
/* columns rows colors chars-per-pixel */
"50 50 100 2 ",
"   c #ECEEEB",
".  c #EAECE9",
"X  c #E9EBE8",
"o  c #E6E8E5",
"O  c #E8EAE7",
"+  c #EBEDEA",
"@  c #F0F2EF",
"#  c #F3F5F2",
"$  c #F4F6F3",
"%  c #F6F8F5",
"&  c #F8FAF7",
"*  c #EEF0ED",
"=  c #EFF1EE",
"-  c #2A190D",
";  c #F7F9F6",
":  c #E1E3E0",
">  c #E3E5E2",
",  c #DADCD9",
"<  c #D7D9D6",
"1  c #E0E2DF",
"2  c #E7E9E6",
"3  c #E4E6E3",
"4  c #F1F3F0",
"5  c #EDEFEC",
"6  c #F2F4F1",
"7  c #F5F7F4",
"8  c #D6D8D5",
"9  c #DFE1DE",
"0  c #E5E7E4",
"q  c #DDDFDC",
"w  c #CCCECB",
"e  c #C3C5C2",
"r  c #C9CBC8",
"t  c #D4D6D3",
"y  c #DEE0DD",
"u  c #CFD1CE",
"i  c #DCDEDB",
"p  c #D8DAD7",
"a  c #683F20",
"s  c #865129",
"d  c #D3D5D2",
"f  c #E2E4E1",
"g  c #D5D7D4",
"h  c #D9DBD8",
"j  c #FBFDFA",
"k  c #A78665",
"l  c #AEB0AD",
"z  c #CDCFCC",
"x  c #D0D2CF",
"c  c #DBDDDA",
"v  c #D2D4D1",
"b  c #4E4031",
"n  c #C4A17A",
"m  c #3A7124",
"M  c #CED0CD",
"N  c #D1D3D0",
"B  c #F9FBF8",
"V  c #FAFCF9",
"C  c #52330F",
"Z  c #E3C59C",
"A  c #CACCC9",
"S  c #EAA330",
"D  c #B26A1F",
"F  c #413529",
"G  c #F2F4F3",
"H  c #F1F3F2",
"J  c #E9EBEA",
"K  c #E5E7E6",
"L  c #EBEDEC",
"P  c #EDEFEE",
"I  c #DDDFDE",
"U  c #DBDDDC",
"Y  c #EFF1F0",
"T  c #E7E9E8",
"R  c #CE8025",
"E  c #442A0C",
"W  c #C5C7C4",
"Q  c #C4C6C3",
"!  c #C7C9C6",
"~  c #E2E4E3",
"^  c #E4E6E5",
"/  c #E6E8E7",
"(  c #D7D9D8",
")  c #DFE1E0",
"_  c #E0E2E1",
"`  c #826C2B",
"'  c #9C8334",
"]  c #E3E5E4",
"[  c #E1E3E2",
"{  c #D6D8D7",
"}  c #D8DAD9",
"|  c #DADCDB",
" . c #D4D6D5",
".. c #D2D4D3",
"X. c #3E3415",
"o. c #332B11",
"O. c #DCDEDD",
"+. c #FEFFFD",
"@. c #B6B8B5",
"#. c #23150B",
/* pixels */
"  . X o O X + @ # $ % & * . = = = - - - - - - - - - - - - - - - - * . + ; X : o . > , < 1 2   . 3 1 ",
"  4 4 4 5   5 = 4 6 # 7 . 5 + 6 @ - - - - - - - - - - - - - - - - = X 2 8 9 0 q w e r t 0 . 5 X : y ",
"o * * & +     . . . . O 3 X 3 *   - - - - - - - - - - - - - - - - .   > q # % 9 u 8 i p 2 .     X 2 ",
"X   O . 9 2 + X X   O :   - - - - a a a s s s s s s s s s s a a a - - - -   O q 1 5 5 : $ @ + X O 2 ",
"0 X = . d : . + * $ = 3 o - - - - a a a s s s s s s s s s s a a a - - - - 3 f 2 o 1 f + % + 1 y f o ",
"        + 5 *   X 2 X + @ - - - - a a a s s s s s s s s s s a a a - - - - q t g y O 9 2 O = + 5 + + ",
"= = = = 4 # $ # = * = 4 @ - - - - a a a s s s s s s s s s s a a a - - - - h o : 3 5 X # O # $ 2 O = ",
"4 4 4 4 4 $ 7 # @ * = 4 4 - - - - a a a a a a a a a a a a a a a a - - - - h X 3 2 2 = 4 j . . +   X ",
"@ @ @ @ f 3 0 3 1 9 1 f @ - - - - a a a a a a a a a a a a a a a a - - - - < + o y > = >   o > + 4 0 ",
"5 5 5 5 6 $ 7 $ @ = @ 6 * - - - - a a a a a a a a a a a a a a a a - - - - i #   g 0 3 > + X 4 @ * X ",
"        X +   + 2 o 2 X + - - - - a a a k k k k k k k k k k a a a - - - -     . 9 q g   # = = q * % ",
"* * * * X + 5 + O o 2 X O - - - - a a a k k k k k k k k k k a a a - - - - O > X 5 i p @ + ; , l y # ",
"@ @ @ @ X + 5 + O o 2 X 2 - - - - a a a k k k k k k k k k k a a a - - - - z   # 4     @ x c > : & 5 ",
"= = = = 4 d v 6 2 > *   o b b b b n n n m m m n n n n m m m n n n b b b b t O + q f   3 . X : y 0 0 ",
"5 5 5 5 $ : q * 5 4 5   O b b b b n n n m m m n n n n m m m n n n b b b b 4 + M 2 5 8 h 0 .   3 9 + ",
"= = = = 4 7 7 @ . 5 : + X b b b b n n n m m m n n n n m m m n n n b b b b d h h 5 . , f * 2 . = = 5 ",
"$ $ $ $ * & $ @ @ $ O @ * b b b b n n n m m m n n n n m m m n n n b b b b N 3 B 6 6 B 4 X 7 @ q d g ",
"$ $ $ $ 6 V 4 C C C C C C b b b b Z Z Z n n n Z Z Z Z n n n Z Z Z b b b b C C C C C C 8 1 o > :   7 ",
"= = = = 5 $ * C C C C C C b b b b Z Z Z n n n Z Z Z Z n n n Z Z Z b b b b C C C C C C $ @ . 0 , A r ",
"5 5 5 5 + O c C C C C C C b b b b Z Z Z n n n Z Z Z Z n n n Z Z Z b b b b C C C C C C 4 p h c h q O ",
"= = = C C C C S S S S S S D D D D F F F n n n k k k k n n n F F F D D D D S S S S S S C C C C X 5   ",
"G H J C C C C S S S S S S D D D D F F F n n n k k k k n n n F F F D D D D S S S S S S C C C C K L P ",
"I U I C C C C S S S S S S D D D D F F F n n n k k k k n n n F F F D D D D S S S S S S C C C C Y Y T ",
"C C C R R R R R R R R R R R R R R D D D F F F F F F F F F F D D D R R R R R R R R R R R R R R C C C ",
"C C C R R R R R R R R R R R R R R D D D F F F F F F F F F F D D D R R R R R R R R R R R R R R C C C ",
"C C C R R R R R R R R R R R R R R D D D F F F F F F F F F F D D D R R R R R R R R R R R R R R C C C ",
"C C C R R R R R R R R R R R R R R D D D F F F F F F F F F F D D D R R R R R R R R R R R R R R C C C ",
"b b b R R R R R R R D D D R R R R R R R D D D E E E E D D D R R R R R R R D D D R R R R R R R b b b ",
"b b b R R R R R R R D D D R R R R R R R D D D E E E E D D D R R R R R R R D D D R R R R R R R b b b ",
"b b b R R R R R R R D D D R R R R R R R D D D E E E E D D D R R R R R R R D D D R R R R R R R b b b ",
"b b b R R R R D D D F F F D D D D R R R R R R C C C C R R R R R R D D D D F F F D D D R R R R b b b ",
"b b b R R R R D D D F F F D D D D R R R R R R C C C C R R R R R R D D D D F F F D D D R R R R b b b ",
"b b b R R R R D D D F F F D D D D R R R R R R C C C C R R R R R R D D D D F F F D D D R R R R b b b ",
"b b b n n n n k k k F F F D D D D R R R S S S S S S S S S S R R R D D D D F F F k k k n n n n b b b ",
"b b b n n n n k k k F F F D D D D R R R S S S S S S S S S S R R R D D D D F F F k k k n n n n b b b ",
"b b b n n n n k k k F F F D D D D R R R S S S S S S S S S S R R R D D D D F F F k k k n n n n b b b ",
"b b b n n n n k k k F F F D D D D R R R S S S S S S S S S S R R R D D D D F F F k k k n n n n b b b ",
"W Q ! b b b b k k k F F F D D D D R R R S S S S S S S S S S R R R D D D D F F F k k k b b b b ~ ^ / ",
"h g p b b b b k k k F F F D D D D R R R S S S S S S S S S S R R R D D D D F F F k k k b b b b ( U I ",
"* : y b b b b k k k F F F D D D D R R R S S S S S S S S S S R R R D D D D F F F k k k b b b b U ) _ ",
"f c c > 1 1 1 b b b F F F ` ` ` ` ' ' ' ' ' ' ` ` ` ` ` ` ` ` ` ` ` ` ` ` F F F b b b , ] [ ) _ ~ ] ",
", h q : o o o b b b F F F ` ` ` ` ' ' ' ' ' ' ` ` ` ` ` ` ` ` ` ` ` ` ` ` F F F b b b > ~ I ( { } U ",
"f f > 3 i i i b b b F F F ` ` ` ` ' ' ' ' ' ' ` ` ` ` ` ` ` ` ` ` ` ` ` ` F F F b b b 0 ) |  ...{ I ",
": 9 > X q q q q q q X.X.X.` ` ` ` ` ` ` ` ` ` o.o.o.o.` ` ` ` ` ` ` ` ` ` X.X.X.: : f f [ O.( ( U _ ",
"> p 8 q h h h h h h X.X.X.` ` ` ` ` ` ` ` ` ` o.o.o.o.` ` ` ` ` ` ` ` ` ` X.X.X.3 f 1 9 O.}  . .{ } ",
", 8 g < i 1 < X +.= X.X.X.` ` ` ` ` ` ` ` ` ` o.o.o.o.` ` ` ` ` ` ` ` ` ` X.X.X.9 9 f c c t N ! M y ",
"9 p c > 2 p : @ z W X.X.X.` ` ` ` ` ` ` ` ` ` o.o.o.o.` ` ` ` ` ` ` ` ` ` X.X.X.1 f y f 1 < M d y > ",
"i 8 h : > i o 4 e @.3 q q #.#.#.#.#.#.#.#.#.#.- - - - #.#.#.#.#.#.#.#.#.#.c 1 > 3 3 : X 3 + y 8 < y ",
"c p p c 1 O : 2 : d q : > #.#.#.#.#.#.#.#.#.#.- - - - #.#.#.#.#.#.#.#.#.#.o > X . 0 X X *   : : 3 0 ",
"  X X     + > > 5 . 3 X + #.#.#.#.#.#.#.#.#.#.- - - - #.#.#.#.#.#.#.#.#.#.4     + . * O . 1 h N 8 > "
};
