/* XPM */
static char *_d36d9553b8a4269d0df022578b49e186216xH8ulx9cwzZa[] = {
/* columns rows colors chars-per-pixel */
"50 50 20 1 ",
"  c None",
". c #23150B",
"X c #2A190D",
"o c #332B11",
"O c #3E3415",
"+ c #442A0C",
"@ c #52330F",
"# c #413529",
"$ c #683F20",
"% c #3A7124",
"& c #4E4031",
"* c #B26A1F",
"= c #865129",
"- c #826C2B",
"; c #9C8334",
": c #CE8025",
"> c #EAA330",
", c #A78665",
"< c #C4A17A",
"1 c #E3C59C",
/* pixels */
"                 XXXXXXXXXXXXXXXX                 ",
"                 XXXXXXXXXXXXXXXX                 ",
"                 XXXXXXXXXXXXXXXX                 ",
"             XXXX$$$==========$$$XXXX             ",
"             XXXX$$$==========$$$XXXX             ",
"             XXXX$$$==========$$$XXXX             ",
"             XXXX$$$==========$$$XXXX             ",
"             XXXX$$$$$$$$$$$$$$$$XXXX             ",
"             XXXX$$$$$$$$$$$$$$$$XXXX             ",
"             XXXX$$$$$$$$$$$$$$$$XXXX             ",
"             XXXX$$$,,,,,,,,,,$$$XXXX             ",
"             XXXX$$$,,,,,,,,,,$$$XXXX             ",
"             XXXX$$$,,,,,,,,,,$$$XXXX             ",
"             &&&&<<<%%%<<<<%%%<<<&&&&             ",
"             &&&&<<<%%%<<<<%%%<<<&&&&             ",
"             &&&&<<<%%%<<<<%%%<<<&&&&             ",
"             &&&&<<<%%%<<<<%%%<<<&&&&             ",
"       @@@@@@&&&&111<<<1111<<<111&&&&@@@@@@       ",
"       @@@@@@&&&&111<<<1111<<<111&&&&@@@@@@       ",
"       @@@@@@&&&&111<<<1111<<<111&&&&@@@@@@       ",
"   @@@@>>>>>>****###<<<,,,,<<<###****>>>>>>@@@@   ",
"   @@@@>>>>>>****###<<<,,,,<<<###****>>>>>>@@@@   ",
"   @@@@>>>>>>****###<<<,,,,<<<###****>>>>>>@@@@   ",
"@@@::::::::::::::***##########***::::::::::::::@@@",
"@@@::::::::::::::***##########***::::::::::::::@@@",
"@@@::::::::::::::***##########***::::::::::::::@@@",
"@@@::::::::::::::***##########***::::::::::::::@@@",
"&&&:::::::***:::::::***++++***:::::::***:::::::&&&",
"&&&:::::::***:::::::***++++***:::::::***:::::::&&&",
"&&&:::::::***:::::::***++++***:::::::***:::::::&&&",
"&&&::::***###****::::::@@@@::::::****###***::::&&&",
"&&&::::***###****::::::@@@@::::::****###***::::&&&",
"&&&::::***###****::::::@@@@::::::****###***::::&&&",
"&&&<<<<,,,###****:::>>>>>>>>>>:::****###,,,<<<<&&&",
"&&&<<<<,,,###****:::>>>>>>>>>>:::****###,,,<<<<&&&",
"&&&<<<<,,,###****:::>>>>>>>>>>:::****###,,,<<<<&&&",
"&&&<<<<,,,###****:::>>>>>>>>>>:::****###,,,<<<<&&&",
"   &&&&,,,###****:::>>>>>>>>>>:::****###,,,&&&&   ",
"   &&&&,,,###****:::>>>>>>>>>>:::****###,,,&&&&   ",
"   &&&&,,,###****:::>>>>>>>>>>:::****###,,,&&&&   ",
"       &&&###----;;;;;;--------------###&&&       ",
"       &&&###----;;;;;;--------------###&&&       ",
"       &&&###----;;;;;;--------------###&&&       ",
"          OOO----------oooo----------OOO          ",
"          OOO----------oooo----------OOO          ",
"          OOO----------oooo----------OOO          ",
"          OOO----------oooo----------OOO          ",
"             ..........XXXX..........             ",
"             ..........XXXX..........             ",
"             ..........XXXX..........             "
};
