/* XPM */
static char *e67f7a489ac0459abf1ad3290da30128z2QF2aRdBcOTtCR1[] = {
/* columns rows colors chars-per-pixel */
"50 50 124 2 ",
"   c #5D5F5E",
".  c #5E605F",
"X  c #646665",
"o  c #676968",
"O  c #6A6C6B",
"+  c #6E706D",
"@  c #737574",
"#  c #777978",
"$  c #7A7C7B",
"%  c #7E807F",
"&  c #80827F",
"*  c #838584",
"=  c #848588",
"-  c #8B8D8C",
";  c #8E908F",
":  c #929493",
">  c #979997",
",  c #989A97",
"<  c #96979B",
"1  c #979998",
"2  c #9B9D9B",
"3  c #9EA09E",
"4  c #9D9EA1",
"5  c #9FA1A0",
"6  c #A2A4A3",
"7  c #A6A8A6",
"8  c #A8AAA7",
"9  c #A4A5A9",
"0  c #A7A9A9",
"q  c #ABACAB",
"w  c #AFB1AE",
"e  c #B0B2AF",
"r  c #ADAEB1",
"t  c #AFB1B0",
"y  c #B3B5B3",
"u  c #B6B8B6",
"i  c #B8BAB7",
"p  c #B7B9B8",
"a  c #BBBDBB",
"s  c #BEC0BE",
"d  c #C0C2BF",
"f  c #BFC1C0",
"g  c #C3C5C3",
"h  c #C6C8C6",
"j  c #C8CAC7",
"k  c #C7C9C8",
"l  c #CBCDCB",
"z  c #CED0CE",
"x  c #D0D2CF",
"c  c #CFD1D0",
"v  c #D3D5D3",
"b  c #D6D8D6",
"n  c #D8DAD7",
"m  c #D7D9D8",
"M  c #DBDDDB",
"N  c #DEE0DE",
"B  c #E0E2DF",
"V  c #DFE1E0",
"C  c #E5E7E6",
"Z  c #E5E7E4",
"A  c #E2E4E2",
"S  c #E6E8E5",
"D  c #E7E9E6",
"F  c #E6E8E7",
"G  c #E6E8E5",
"H  c #E9EBE6",
"J  c #E8EAE7",
"K  c #E8EAE7",
"L  c #E7E9E8",
"P  c #E9EBE8",
"I  c #E8EAE9",
"U  c #E9EBEA",
"Y  c #EBEDE8",
"T  c #EAECE9",
"R  c #EBEDEA",
"E  c #EAECEB",
"W  c #ECEEE9",
"Q  c #EDEFEA",
"!  c #ECEEEB",
"~  c #EBEDEC",
"^  c #EDEFEC",
"/  c #ECEEED",
"(  c #EDEFEE",
")  c #EBEDEA",
"_  c #EEF0EB",
"`  c #EFF1EC",
"'  c #EEF0ED",
"]  c #EFF1EE",
"[  c #EEF0EF",
"{  c #EEF1ED",
"}  c #F0F2ED",
"|  c #F1F3EE",
" . c #F0F2EF",
".. c #F2F4EF",
"X. c #F0F2EE",
"o. c #EFF1F0",
"O. c #F1F3F0",
"+. c #F0F2F1",
"@. c #F1F3F2",
"#. c #F3F5F0",
"$. c #F2F4F1",
"%. c #F3F5F2",
"&. c #F2F4F3",
"*. c #F4F6F1",
"=. c #F5F7F2",
"-. c #F4F6F3",
";. c #F3F5F4",
":. c #F5F7F4",
">. c #F5F7F6",
",. c #F3F5F2",
"<. c #F6F8F3",
"1. c #F6F8F5",
"2. c #F7F9F6",
"3. c #F6F8F7",
"4. c #F6F8F5",
"5. c #F8FAF7",
"6. c #F9FCF6",
"7. c #F9FBF8",
"8. c #F9FBFA",
"9. c #FAFCF9",
"0. c #FBFDFA",
"q. c #FCFEFB",
"w. c #FEFFFF",
"e. c #FCFDFB",
/* pixels */
"! T P S J P T O.-.-.1.5.' T ' '  .T b x s d b M N n N x T ! -.T K ' T T 1.T A S T A M b N S ' T A N ",
"! O.O.O.^ ! ' '  .%.%.-.T _ T %. .A b g v g l M N b Z T ' ' ' J T ' T S b N A N l g l v S T ' T A N ",
"S ' ' 5.T ! ! T T T T J Z J Z ' ! N v u M v A ^  ._ ! M  . .J J T T _ A N %.1.N z b M b S T _ T T S ",
"P ! J T B J T P T ! J B ! ! J ' ! S B g u j A b z M -._  .%.T S S S T S S T P N N _ _ B <.o.T T S S ",
"Z T ' T v A T T ' -.' Z S A Z J S J M g g l A A M m P Z ' ' %.S A S S T _ A A S S B A T 1.T A N A S ",
"! ! ! ! T ^ ' ! T S T T  . .T ' P _ J u l u p m A C [ L ! -.! J N N S N z N b v N P N S S ..T ' _ T ",
"'  .'  .O.%.-.%. .'  . . . .!  .P _ T u 7 w a m C M S O.%.0.' ! %.P N x A M S A A ' T %.T %.%.S L ' ",
"O.O.O.O.O.-.:.%. .' '  .%. .! ' T  .J u 6 g m ' 3.V v m 1.' -. .S S A N b b T A S S ' %.0.T T T _ T ",
" . . . .B Z Z Z B N B A  ...!  .T ' S u 0 f k c m m V F [ m L A B ' N z l b T S N A ] A T S A T o.S ",
"^ ^ ^ ^ %.-.<.-. .'  .%.' ' T ! J ' S u : 9 f z c M o.( m Z A v A %.S _ n N %._ b S S A T T %.' ' T ",
"! ! ! ! P ! ! ! S S S J ! ! J T S T A y 1 u M [ F C C g v ' A A %.S A ' S T _ T N N b T %.' ' N ' 1.",
"' ' ' ' J ! ! T J S J P J J Z S A S A w 2 g A Z V V M l Z ^ P J b g b N N S A P T M b %.T 7.M w N %.",
" . . . .P T ! T J S S T S J B S B S N w @ a A N M M Z T %.Z J M l N P b v z T %...T T ..z M A N 1.' ",
" .'  .' %.v v %.S Z ' ! S Z Z J P A J , + y z M m A A j %.1.' N ..S S ..l v P T N A ' A T P A N A S ",
"^ ^ ^ ^ -.A M ' ! O.^ ! J ! ! T ! ! %.2 : n A b b A b J %.'  .M d h v z w ..T z S _ b M S T _ A N T ",
"'  .'  . .-.1. .T _ A T J ' ' ! ' _ %.3 , b n Z %.T v S  .' J n l x n v w v M m ' T M N ' S T ' ' ' ",
"-.-.-.%.' 1.<... .%.T ' ' ' T %. .T  .6 2 l l B B B z x S B ! A S B <.1.N z A 0.%.%.1.%.T 1.' N v b ",
"-.-.-.1.%.0.....' T S T %.' ' %.1.' -.7 % h N N M ..T %.N b 0.1.M v 5.' ] 0._ M N T B b N S A A T -.",
"' ' ' ' ! %._ <.T S  .0.T ' ' ' ' ' %.3 > A N b Z S M N b M ! _ A T %.L z M d s A T B <...T C M l l ",
"' ' ' ' T J M N M N N A A S L S J J _ , y M f j _ B _ S J -.T A ] o.V M 0.A z N %.S N %.b n M m N S ",
"' ' ' o._ _ S B n A N T L S S ~ ! S ~ 2 5 s k M O.C o.V B S %.Z C m V C q.o.C V ' %.S M ~ ' T L ! ! ",
"&.%.T o.=.=.B B ' .._ ..q.E ~ o.M T L : l M C o.&.~ V g 0.T v b v l V L L M m V T V V ~ T C C C T ' ",
"V M N C B Y _ } P P ..<.o.L ~ C c L L ; g V L C V M m m &.&.&.E V M V U M V L ( S V V ~ ~ C L o.o.L ",
"r y p y u i i s l z z x c l v b h v z % u A o.&.o.V v v V V A v v C E o.C C C V C ~ L C o.&.L b b L ",
"@ $ # # $ - 3 6 q 0 5 q 6 1 , q 5 2 1 O q V o.&.3.V z c &.V k t p c b v v v c l l v v c f g u 2 2 a ",
"X O . @ X . * ; < 5 ; - - $ @ % # @ % O y M V v c l c V o.V p 9 7 q q 6 6 0 q q 0 5 5 6 6 3 4 6 6 6 ",
"$ : $ = : = 5 2 4 9 : : t q 5 6 5 5 t 5 t g a t t y g l y t 0 r q 6 0 7 6 2 2 5 5 2 : 1 : 2 4 6 2 1 ",
"# ; - 0 9 9 r 9 4 < = = q q 9 t t 0 t q 5 0 q q q t p 0 5 6 0 y p y u u f p y y t q q y 5 t y 6 5 0 ",
"$ , ; - 9 4 9 5 1 2 0 9 7 3 > t y 3 6 t 6 w s h p a g t a w 0 0 w y w 8 p u u a y q 0 q q r t y u t ",
": 8 3 : 6 6 6 6 6 3 2 2 > 3 3 3 0 0 7 w s N A l b A N v C u u 7 : 6 7 w q w u i p y y y r r r r y t ",
"w i s u q q q y e y y w w u s g g l v n N Z A V A N b N S _ 0.A u w w 6 e w 8 8 8 q y y t 0 9 r r 4 ",
"B M J ' M N V S T T T T S ..%.%.<.%.1.q.%.T S ' %.' ' -.-.S ' 1.%._ b l d s i i s s a i a a f y g c ",
"S l z ' Y !  .-.-.-.5.-.O.5. .!  .! A P O.J P  .O.O.O. .Y :.{ 4.O.S :.%.O.O.%.:.4.%.^ S 9.Z -. ..._ ",
"..l x <.! ! !  .! ! P P O. .O.O. . . .{ ^ B Z :.%.{ ^ P -.q.4.^ ^ O.O.O.4.4.4.-.O.{ O.O.{  .5.5.} =.",
"M l n Z n n M n n b x x m Z J Z J S Y -.B b B ^ S A A N ! ! M P O.S O.P J J J S A A S Y =.| M G B H ",
"_ 0.q.q.q.q.q.q.q.q.q.q. .q.9.:.9.-.-.q.9.q.q.q.9.9.9.:.9.:.5.4.:.:.%.O.{  ...%.O.O.O.%.| Y B | ....",
"N ' !  .B B S P !  .}  .-.-. . . .! Y Y Z J ! Y Y ^ O.-.{ ^  .5.9.9.5.` 4.-.-.-.9.9.9.4.=.6.6.6.^ ' ",
"g g h j z l l z l l l l j l l l x x x b n M n B N M J M B Z S Z A A N M S S Z B B Z G J Y B B B C F ",
"n b n B Z Z B B Z B B Z n n v x v n n B B Z B M N A A O. .Y A M m M m v M M M M M B M M n v n M M V ",
" .B N Z M M N N M B B M n B M M B M M B J J B M m N Z B v n M M n M N N v b n M n n v v n b b M V V ",
"B M N B B B B B B B B B B B B M B M B B } v n M M B n n n M M n n M M x M M M M N M M M Z Z B A A A ",
"M b N B G G G G G G G G G J B B B B B G n B ! J J J M Z M B B M B B B M B Z B B B B Z B B M m b M M ",
"B B Z Z M M M M M M M M B B B B B B B B q.5. .-. .B M Z J ! ! Y Z B B Z S Z B B B B G Z V M v v b M ",
"B B B J B M N M B M B M B B n b M B B G M M ! -.S B Z ! ..S B B B B B J B B B B B B B Z V M m m M A ",
"G b b B n M n M M n n M M B B B Z Z Z J x g e d v M Y -.n v n S G B B G B B B Z Z A A M M m v m n n ",
"M b x b M B b J q. .B B B B B J Y J Z S J M g j x M B l B J Z B B G Z B B J Z B M B A M M b z k l N ",
"B M M B G n B  .l h Y B B B B M M B B B B v M x x Z B B B M M M B B B M B M A N A A M A A m z v M Z ",
"M b M B Z M J ..d i Z M B M M B B B G J B B Z M n N B B Z M n B B B B M Z m B A Z Z A P A E M b b B ",
"M b n M B J B J B v B B Z B Z ! ! Y J ! !  .J ! P Z ! Z J A B Z Y G Z Z Z S Z J Y Z J J ! ! B Z Z Z ",
"Q H Y ! ! Y B Z ! Y Z J Y  . .! J J J A J J J Y  .{ ! ! S ! { P J Y Y ! !  .! ! ! J  .J ! B n x b B "
};
